<svg width="100" height="24" viewBox="0 0 100 24" fill="none" xmlns="http://www.w3.org/2000/svg">
  <path fill-rule="evenodd" clip-rule="evenodd" d="M22.4466 0C20.2375 0 18.4466 1.79086 18.4466 4V11.84C18.4466 14.0491 20.2375 15.84 22.4466 15.84H78.5243C80.7334 15.84 82.5243 14.0491 82.5243 11.84V4C82.5243 1.79086 80.7334 0 78.5243 0H22.4466ZM46.6145 11.5661C49.073 12.9478 51.6906 12.9296 54.3083 11.9297C55.228 11.5843 55.9709 11.0026 56.5546 10.1663C56.2492 9.98696 56.0993 10.1516 55.9672 10.2967C55.9386 10.3281 55.9108 10.3586 55.8825 10.3844C53.9015 12.1297 51.6199 12.2933 49.2321 11.5298C47.4281 10.9662 46.5614 9.60272 46.5791 7.71201C46.5968 5.60314 47.6049 4.13057 49.3736 3.53063C52.0267 2.65799 54.0961 3.34883 55.8648 5.71222C55.9355 5.8213 56.0063 5.93037 56.1478 5.91219C56.3246 5.87583 56.307 5.7304 56.2893 5.60314C56.245 5.16637 56.2007 4.72504 56.1565 4.28372C56.1123 3.84332 56.0681 3.40292 56.024 2.96706C55.9886 2.63982 55.741 2.53072 55.5995 2.76706C55.1592 3.54289 54.5931 3.35593 54.013 3.16437C53.9406 3.14047 53.868 3.11649 53.7954 3.09431C51.1954 2.29439 48.7015 2.56708 46.4199 4.03965C43.3601 6.02126 43.4485 9.78451 46.6145 11.5661ZM67.5382 11.8208C64.9559 12.9479 62.3559 12.9116 59.8266 11.7299C58.3232 11.0209 57.2797 9.80282 57.1913 8.00301C57.1028 6.18502 58.0049 4.83972 59.4729 3.96708C61.7015 2.63995 64.0892 2.33089 66.5831 3.05809C66.6959 3.09079 66.8106 3.13176 66.9259 3.17297L66.926 3.17298C67.516 3.38372 68.1231 3.60058 68.5817 2.74902C68.6702 2.56722 68.9531 2.63994 68.9885 2.93082C69.0327 3.38531 69.077 3.83527 69.1212 4.28522C69.1654 4.73517 69.2096 5.18513 69.2538 5.63963C69.2715 5.7487 69.2538 5.85779 69.1477 5.89415C68.9987 5.9401 68.9376 5.8441 68.8691 5.73662C68.8563 5.71652 68.8433 5.69602 68.8293 5.67598C67.2906 3.43985 65.1151 2.69448 62.5327 3.47621C60.5164 4.09433 59.4906 5.6578 59.5613 8.03936C59.6144 9.89371 60.7287 11.2572 62.6919 11.7117C64.9559 12.2208 67.096 12.0208 68.9178 10.3482C68.939 10.3291 68.9595 10.3083 68.9802 10.2873C69.0975 10.1683 69.2238 10.0401 69.5545 10.1482C69.0062 10.93 68.3341 11.4754 67.5382 11.8208ZM41.5504 7.29832C42.0521 8.12075 42.5544 8.94419 43.0593 9.76763C43.1508 9.91459 43.2391 10.0654 43.3274 10.2163C43.9059 11.2041 44.4871 12.1965 45.96 12.1492C45.9423 12.1856 45.9291 12.2174 45.9158 12.2492C45.9025 12.281 45.8893 12.3128 45.8716 12.3492H40.4417C40.6024 12.1151 40.7936 12.1105 40.9691 12.1062C41.0253 12.1048 41.08 12.1035 41.1315 12.0947C41.8036 11.9856 41.9627 11.6947 41.6798 11.0584C41.1138 9.80401 40.4063 8.94954 38.8498 9.22224C38.1291 9.3413 37.3896 9.30635 36.6519 9.27147C36.3758 9.25842 36.0999 9.24539 35.8254 9.24043C35.4362 9.22225 35.1886 9.33133 34.9941 9.69493C34.8506 9.9583 34.6893 10.2156 34.5273 10.4738C34.4098 10.6612 34.292 10.8491 34.1805 11.0402C33.8444 11.5856 34.092 11.8765 34.6226 12.0219C34.7124 12.0424 34.8051 12.047 34.8977 12.0517C35.1335 12.0634 35.3696 12.0751 35.56 12.3492H31.2621C31.2689 12.3145 31.273 12.2797 31.2766 12.2501C31.2824 12.2021 31.2865 12.1674 31.2975 12.1674C32.4471 12.0401 33.0662 11.2402 33.6322 10.313C34.5872 8.7375 35.558 7.17813 36.5288 5.61876C37.0142 4.83899 37.4997 4.05923 37.9832 3.27744C38.5138 2.44117 38.5845 2.44117 39.0974 3.29562C39.9191 4.62432 40.7339 5.95999 41.5504 7.29832ZM36.9337 6.64544C36.509 7.32693 36.0896 7.99982 35.6485 8.69504H40.2825C40.0423 8.30558 39.8086 7.92605 39.578 7.55145C39.0441 6.68455 38.5266 5.84409 37.9832 4.96817C37.6205 5.54357 37.2754 6.09729 36.9337 6.64544Z" fill="#A9A9A9"/>
  <path d="M28.4034 21.0197C28.6665 21.0197 28.8716 21.1025 29.0185 21.2679C29.1689 21.4298 29.2441 21.6569 29.2441 21.949V23.6967C29.2441 23.7143 29.2373 23.7301 29.2236 23.7442C29.2133 23.7548 29.1997 23.7601 29.1826 23.7601H28.7161C28.699 23.7601 28.6836 23.7548 28.67 23.7442C28.6597 23.7301 28.6546 23.7143 28.6546 23.6967V22.0757C28.6546 21.9138 28.6119 21.7853 28.5264 21.6903C28.4444 21.5953 28.3333 21.5477 28.1932 21.5477C28.0531 21.5477 27.9386 21.5953 27.8498 21.6903C27.7609 21.7853 27.7165 21.9121 27.7165 22.0705V23.6967C27.7165 23.7143 27.7097 23.7301 27.696 23.7442C27.6857 23.7548 27.6721 23.7601 27.655 23.7601H27.1885C27.1714 23.7601 27.156 23.7548 27.1424 23.7442C27.1321 23.7301 27.127 23.7143 27.127 23.6967V22.0757C27.127 21.9138 27.0843 21.7853 26.9988 21.6903C26.9134 21.5953 26.8006 21.5477 26.6605 21.5477C26.5306 21.5477 26.423 21.5865 26.3375 21.6639C26.2555 21.7413 26.2077 21.8469 26.194 21.9807V23.6967C26.194 23.7143 26.1872 23.7301 26.1735 23.7442C26.1632 23.7548 26.1496 23.7601 26.1325 23.7601H25.6609C25.6438 23.7601 25.6284 23.7548 25.6147 23.7442C25.6045 23.7301 25.5994 23.7143 25.5994 23.6967V21.1253C25.5994 21.1077 25.6045 21.0937 25.6147 21.0831C25.6284 21.069 25.6438 21.062 25.6609 21.062H26.1325C26.1496 21.062 26.1632 21.069 26.1735 21.0831C26.1872 21.0937 26.194 21.1077 26.194 21.1253V21.2996C26.194 21.3101 26.1974 21.3172 26.2043 21.3207C26.2111 21.3242 26.2179 21.3207 26.2248 21.3101C26.2999 21.2116 26.3922 21.1394 26.5016 21.0937C26.6144 21.0444 26.7391 21.0197 26.8758 21.0197C27.0432 21.0197 27.1902 21.0549 27.3166 21.1253C27.4431 21.1957 27.5405 21.2978 27.6088 21.4316C27.6191 21.4457 27.6311 21.4457 27.6447 21.4316C27.7199 21.2908 27.8241 21.1869 27.9574 21.1201C28.0907 21.0532 28.2394 21.0197 28.4034 21.0197Z" fill="#A9A9A9"/>
  <path d="M32.2098 22.1074C32.2234 22.1954 32.2303 22.294 32.2303 22.4031L32.2251 22.5668C32.2251 22.609 32.2046 22.6301 32.1636 22.6301H30.5591C30.542 22.6301 30.5335 22.6389 30.5335 22.6565C30.5437 22.7727 30.5591 22.8519 30.5796 22.8941C30.6616 23.1476 30.8616 23.2761 31.1794 23.2796C31.4118 23.2796 31.5963 23.181 31.733 22.9839C31.7467 22.9628 31.7638 22.9522 31.7843 22.9522C31.798 22.9522 31.8099 22.9575 31.8202 22.9681L32.138 23.2373C32.1688 23.262 32.1739 23.2901 32.1534 23.3218C32.0474 23.4767 31.9056 23.5964 31.7279 23.6809C31.5536 23.7653 31.3588 23.8076 31.1435 23.8076C30.8769 23.8076 30.6497 23.746 30.4617 23.6228C30.2772 23.4996 30.1422 23.3271 30.0568 23.1053C29.9782 22.9153 29.9389 22.6513 29.9389 22.3133C29.9389 22.1092 29.9594 21.9437 30.0004 21.817C30.0687 21.5706 30.1969 21.377 30.3848 21.2362C30.5762 21.0919 30.8052 21.0197 31.0717 21.0197C31.745 21.0197 32.1243 21.3823 32.2098 22.1074ZM31.0717 21.5477C30.9453 21.5477 30.8394 21.5812 30.7539 21.6481C30.6719 21.7114 30.6138 21.8012 30.5796 21.9173C30.5591 21.9772 30.5455 22.0546 30.5386 22.1497C30.5318 22.1673 30.5386 22.1761 30.5591 22.1761H31.5997C31.6168 22.1761 31.6254 22.1673 31.6254 22.1497C31.6185 22.0617 31.6083 21.9948 31.5946 21.949C31.5639 21.8223 31.5023 21.7237 31.4101 21.6533C31.3212 21.5829 31.2084 21.5477 31.0717 21.5477Z" fill="#A9A9A9"/>
  <path d="M35.7486 21.0197C36.0118 21.0197 36.2168 21.1025 36.3638 21.2679C36.5142 21.4298 36.5893 21.6569 36.5893 21.949V23.6967C36.5893 23.7143 36.5825 23.7301 36.5688 23.7442C36.5586 23.7548 36.5449 23.7601 36.5278 23.7601H36.0613C36.0443 23.7601 36.0289 23.7548 36.0152 23.7442C36.005 23.7301 35.9998 23.7143 35.9998 23.6967V22.0757C35.9998 21.9138 35.9571 21.7853 35.8717 21.6903C35.7897 21.5953 35.6786 21.5477 35.5385 21.5477C35.3983 21.5477 35.2839 21.5953 35.195 21.6903C35.1062 21.7853 35.0617 21.9121 35.0617 22.0705V23.6967C35.0617 23.7143 35.0549 23.7301 35.0412 23.7442C35.031 23.7548 35.0173 23.7601 35.0002 23.7601H34.5337C34.5166 23.7601 34.5013 23.7548 34.4876 23.7442C34.4773 23.7301 34.4722 23.7143 34.4722 23.6967V22.0757C34.4722 21.9138 34.4295 21.7853 34.3441 21.6903C34.2586 21.5953 34.1458 21.5477 34.0057 21.5477C33.8759 21.5477 33.7682 21.5865 33.6828 21.6639C33.6008 21.7413 33.5529 21.8469 33.5392 21.9807V23.6967C33.5392 23.7143 33.5324 23.7301 33.5187 23.7442C33.5085 23.7548 33.4948 23.7601 33.4777 23.7601H33.0061C32.989 23.7601 32.9737 23.7548 32.96 23.7442C32.9497 23.7301 32.9446 23.7143 32.9446 23.6967V21.1253C32.9446 21.1077 32.9497 21.0937 32.96 21.0831C32.9737 21.069 32.989 21.062 33.0061 21.062H33.4777C33.4948 21.062 33.5085 21.069 33.5187 21.0831C33.5324 21.0937 33.5392 21.1077 33.5392 21.1253V21.2996C33.5392 21.3101 33.5427 21.3172 33.5495 21.3207C33.5563 21.3242 33.5632 21.3207 33.57 21.3101C33.6452 21.2116 33.7375 21.1394 33.8468 21.0937C33.9596 21.0444 34.0843 21.0197 34.221 21.0197C34.3885 21.0197 34.5354 21.0549 34.6619 21.1253C34.7883 21.1957 34.8857 21.2978 34.9541 21.4316C34.9643 21.4457 34.9763 21.4457 34.99 21.4316C35.0651 21.2908 35.1694 21.1869 35.3027 21.1201C35.4359 21.0532 35.5846 21.0197 35.7486 21.0197Z" fill="#A9A9A9"/>
  <path d="M39.57 21.7589C39.6281 21.9561 39.6572 22.1708 39.6572 22.4031C39.6572 22.653 39.6247 22.873 39.5598 23.0631C39.4846 23.2954 39.3633 23.4767 39.1958 23.6069C39.0283 23.7372 38.8233 23.8023 38.5807 23.8023C38.3414 23.8023 38.1449 23.709 37.9911 23.5225C37.9843 23.5119 37.9775 23.5084 37.9706 23.5119C37.9638 23.5154 37.9604 23.5225 37.9604 23.533V23.6967C37.9604 23.7143 37.9536 23.7301 37.9399 23.7442C37.9296 23.7548 37.916 23.7601 37.8989 23.7601H37.4273C37.4102 23.7601 37.3948 23.7548 37.3811 23.7442C37.3709 23.7301 37.3657 23.7143 37.3657 23.6967V20.1274C37.3657 20.1098 37.3709 20.0957 37.3811 20.0852C37.3948 20.0711 37.4102 20.0641 37.4273 20.0641H37.8989C37.916 20.0641 37.9296 20.0711 37.9399 20.0852C37.9536 20.0957 37.9604 20.1098 37.9604 20.1274V21.2732C37.9604 21.2837 37.9638 21.2908 37.9706 21.2943C37.9775 21.2978 37.9843 21.2961 37.9911 21.289C38.1381 21.1095 38.3329 21.0197 38.5755 21.0197C38.8284 21.0197 39.0369 21.0849 39.2009 21.2151C39.3684 21.3453 39.4914 21.5266 39.57 21.7589ZM38.9241 23.0209C39.0061 22.873 39.0471 22.6706 39.0471 22.4137C39.0471 22.1391 38.9959 21.9244 38.8934 21.7695C38.8011 21.6217 38.6644 21.5477 38.4833 21.5477C38.3158 21.5477 38.1877 21.6252 38.0988 21.7801C38.0134 21.9244 37.9706 22.1338 37.9706 22.4084C37.9706 22.6794 38.0099 22.8836 38.0885 23.0209C38.1774 23.1898 38.3107 23.2743 38.4884 23.2743C38.5841 23.2743 38.6695 23.2532 38.7447 23.2109C38.8199 23.1652 38.8797 23.1018 38.9241 23.0209Z" fill="#A9A9A9"/>
  <path d="M42.5843 22.1074C42.598 22.1954 42.6048 22.294 42.6048 22.4031L42.5997 22.5668C42.5997 22.609 42.5792 22.6301 42.5382 22.6301H40.9337C40.9166 22.6301 40.9081 22.6389 40.9081 22.6565C40.9183 22.7727 40.9337 22.8519 40.9542 22.8941C41.0362 23.1476 41.2361 23.2761 41.554 23.2796C41.7864 23.2796 41.9709 23.181 42.1076 22.9839C42.1213 22.9628 42.1384 22.9522 42.1589 22.9522C42.1725 22.9522 42.1845 22.9575 42.1947 22.9681L42.5126 23.2373C42.5433 23.262 42.5485 23.2901 42.528 23.3218C42.422 23.4767 42.2802 23.5964 42.1025 23.6809C41.9282 23.7653 41.7334 23.8076 41.5181 23.8076C41.2515 23.8076 41.0243 23.746 40.8363 23.6228C40.6518 23.4996 40.5168 23.3271 40.4313 23.1053C40.3527 22.9153 40.3134 22.6513 40.3134 22.3133C40.3134 22.1092 40.3339 21.9437 40.3749 21.817C40.4433 21.5706 40.5714 21.377 40.7594 21.2362C40.9508 21.0919 41.1798 21.0197 41.4463 21.0197C42.1196 21.0197 42.4989 21.3823 42.5843 22.1074ZM41.4463 21.5477C41.3199 21.5477 41.2139 21.5812 41.1285 21.6481C41.0465 21.7114 40.9884 21.8012 40.9542 21.9173C40.9337 21.9772 40.92 22.0546 40.9132 22.1497C40.9064 22.1673 40.9132 22.1761 40.9337 22.1761H41.9743C41.9914 22.1761 42 22.1673 42 22.1497C41.9931 22.0617 41.9829 21.9948 41.9692 21.949C41.9384 21.8223 41.8769 21.7237 41.7846 21.6533C41.6958 21.5829 41.583 21.5477 41.4463 21.5477Z" fill="#A9A9A9"/>
  <path d="M44.5392 21.0303C44.6486 21.0303 44.7443 21.0532 44.8263 21.0989C44.8536 21.113 44.8639 21.1394 44.857 21.1781L44.7699 21.6533C44.7665 21.6956 44.7426 21.7079 44.6981 21.6903C44.6469 21.6727 44.5871 21.6639 44.5187 21.6639C44.4743 21.6639 44.4401 21.6657 44.4162 21.6692C44.2727 21.6762 44.153 21.729 44.0574 21.8276C43.9617 21.9226 43.9138 22.0476 43.9138 22.2025V23.6967C43.9138 23.7143 43.907 23.7301 43.8933 23.7442C43.8831 23.7548 43.8694 23.7601 43.8523 23.7601H43.3807C43.3636 23.7601 43.3482 23.7548 43.3346 23.7442C43.3243 23.7301 43.3192 23.7143 43.3192 23.6967V21.1253C43.3192 21.1077 43.3243 21.0937 43.3346 21.0831C43.3482 21.069 43.3636 21.062 43.3807 21.062H43.8523C43.8694 21.062 43.8831 21.069 43.8933 21.0831C43.907 21.0937 43.9138 21.1077 43.9138 21.1253V21.3629C43.9138 21.377 43.9155 21.3858 43.9189 21.3893C43.9258 21.3893 43.9326 21.3841 43.9394 21.3735C44.083 21.1447 44.2829 21.0303 44.5392 21.0303Z" fill="#A9A9A9"/>
  <path d="M45.7557 20.6924C45.6498 20.6924 45.5626 20.6572 45.4943 20.5868C45.4259 20.5164 45.3918 20.4266 45.3918 20.3175C45.3918 20.2084 45.4259 20.1186 45.4943 20.0482C45.5626 19.9778 45.6498 19.9426 45.7557 19.9426C45.8617 19.9426 45.9488 19.9778 46.0172 20.0482C46.0855 20.1186 46.1197 20.2084 46.1197 20.3175C46.1197 20.4266 46.0855 20.5164 46.0172 20.5868C45.9488 20.6572 45.8617 20.6924 45.7557 20.6924ZM45.5097 23.7601C45.4926 23.7601 45.4772 23.7548 45.4635 23.7442C45.4533 23.7301 45.4481 23.7143 45.4481 23.6967V21.1201C45.4481 21.1025 45.4533 21.0884 45.4635 21.0778C45.4772 21.0637 45.4926 21.0567 45.5097 21.0567H45.9813C45.9984 21.0567 46.012 21.0637 46.0223 21.0778C46.036 21.0884 46.0428 21.1025 46.0428 21.1201V23.6967C46.0428 23.7143 46.036 23.7301 46.0223 23.7442C46.012 23.7548 45.9984 23.7601 45.9813 23.7601H45.5097Z" fill="#A9A9A9"/>
  <path d="M48.1535 23.7601C48.1364 23.7601 48.121 23.7548 48.1073 23.7442C48.0971 23.7301 48.092 23.7143 48.092 23.6967V20.1274C48.092 20.1098 48.0971 20.0957 48.1073 20.0852C48.121 20.0711 48.1364 20.0641 48.1535 20.0641H48.6251C48.6422 20.0641 48.6558 20.0711 48.6661 20.0852C48.6798 20.0957 48.6866 20.1098 48.6866 20.1274V22.0335C48.6866 22.0441 48.69 22.0511 48.6969 22.0546C48.7037 22.0581 48.7105 22.0546 48.7174 22.0441L49.5478 21.0989C49.5717 21.0743 49.5974 21.062 49.6247 21.062H50.1681C50.2023 21.062 50.2193 21.0743 50.2193 21.0989C50.2193 21.1095 50.2142 21.1236 50.204 21.1412L49.5529 21.9437C49.5427 21.9543 49.541 21.9666 49.5478 21.9807L50.3167 23.6861C50.3236 23.7002 50.327 23.7108 50.327 23.7178C50.327 23.746 50.3082 23.7601 50.2706 23.7601H49.7734C49.7392 23.7601 49.7153 23.7442 49.7016 23.7125L49.1428 22.3714C49.1394 22.3644 49.1326 22.3609 49.1223 22.3609C49.1155 22.3573 49.1104 22.3591 49.107 22.3661L48.6969 22.8519C48.69 22.866 48.6866 22.8783 48.6866 22.8889V23.6967C48.6866 23.7143 48.6798 23.7301 48.6661 23.7442C48.6558 23.7548 48.6422 23.7601 48.6251 23.7601H48.1535Z" fill="#A9A9A9"/>
  <path d="M52.9653 22.1074C52.9789 22.1954 52.9858 22.294 52.9858 22.4031L52.9806 22.5668C52.9806 22.609 52.9601 22.6301 52.9191 22.6301H51.3146C51.2975 22.6301 51.289 22.6389 51.289 22.6565C51.2992 22.7727 51.3146 22.8519 51.3351 22.8941C51.4171 23.1476 51.6171 23.2761 51.9349 23.2796C52.1673 23.2796 52.3518 23.181 52.4885 22.9839C52.5022 22.9628 52.5193 22.9522 52.5398 22.9522C52.5534 22.9522 52.5654 22.9575 52.5757 22.9681L52.8935 23.2373C52.9242 23.262 52.9294 23.2901 52.9089 23.3218C52.8029 23.4767 52.6611 23.5964 52.4834 23.6809C52.3091 23.7653 52.1143 23.8076 51.899 23.8076C51.6324 23.8076 51.4052 23.746 51.2172 23.6228C51.0327 23.4996 50.8977 23.3271 50.8122 23.1053C50.7336 22.9153 50.6943 22.6513 50.6943 22.3133C50.6943 22.1092 50.7148 21.9437 50.7559 21.817C50.8242 21.5706 50.9524 21.377 51.1403 21.2362C51.3317 21.0919 51.5607 21.0197 51.8272 21.0197C52.5005 21.0197 52.8798 21.3823 52.9653 22.1074ZM51.8272 21.5477C51.7008 21.5477 51.5948 21.5812 51.5094 21.6481C51.4274 21.7114 51.3693 21.8012 51.3351 21.9173C51.3146 21.9772 51.3009 22.0546 51.2941 22.1497C51.2873 22.1673 51.2941 22.1761 51.3146 22.1761H52.3552C52.3723 22.1761 52.3809 22.1673 52.3809 22.1497C52.374 22.0617 52.3638 21.9948 52.3501 21.949C52.3194 21.8223 52.2578 21.7237 52.1656 21.6533C52.0767 21.5829 51.9639 21.5477 51.8272 21.5477Z" fill="#A9A9A9"/>
  <path d="M56.5041 21.0197C56.7673 21.0197 56.9723 21.1025 57.1193 21.2679C57.2696 21.4298 57.3448 21.6569 57.3448 21.949V23.6967C57.3448 23.7143 57.338 23.7301 57.3243 23.7442C57.3141 23.7548 57.3004 23.7601 57.2833 23.7601H56.8168C56.7997 23.7601 56.7844 23.7548 56.7707 23.7442C56.7604 23.7301 56.7553 23.7143 56.7553 23.6967V22.0757C56.7553 21.9138 56.7126 21.7853 56.6272 21.6903C56.5451 21.5953 56.4341 21.5477 56.294 21.5477C56.1538 21.5477 56.0394 21.5953 55.9505 21.6903C55.8616 21.7853 55.8172 21.9121 55.8172 22.0705V23.6967C55.8172 23.7143 55.8104 23.7301 55.7967 23.7442C55.7865 23.7548 55.7728 23.7601 55.7557 23.7601H55.2892C55.2721 23.7601 55.2568 23.7548 55.2431 23.7442C55.2328 23.7301 55.2277 23.7143 55.2277 23.6967V22.0757C55.2277 21.9138 55.185 21.7853 55.0995 21.6903C55.0141 21.5953 54.9013 21.5477 54.7612 21.5477C54.6314 21.5477 54.5237 21.5865 54.4383 21.6639C54.3562 21.7413 54.3084 21.8469 54.2947 21.9807V23.6967C54.2947 23.7143 54.2879 23.7301 54.2742 23.7442C54.264 23.7548 54.2503 23.7601 54.2332 23.7601H53.7616C53.7445 23.7601 53.7291 23.7548 53.7155 23.7442C53.7052 23.7301 53.7001 23.7143 53.7001 23.6967V21.1253C53.7001 21.1077 53.7052 21.0937 53.7155 21.0831C53.7291 21.069 53.7445 21.062 53.7616 21.062H54.2332C54.2503 21.062 54.264 21.069 54.2742 21.0831C54.2879 21.0937 54.2947 21.1077 54.2947 21.1253V21.2996C54.2947 21.3101 54.2982 21.3172 54.305 21.3207C54.3118 21.3242 54.3187 21.3207 54.3255 21.3101C54.4007 21.2116 54.4929 21.1394 54.6023 21.0937C54.7151 21.0444 54.8398 21.0197 54.9765 21.0197C55.144 21.0197 55.2909 21.0549 55.4174 21.1253C55.5438 21.1957 55.6412 21.2978 55.7096 21.4316C55.7198 21.4457 55.7318 21.4457 55.7454 21.4316C55.8206 21.2908 55.9249 21.1869 56.0581 21.1201C56.1914 21.0532 56.3401 21.0197 56.5041 21.0197Z" fill="#A9A9A9"/>
  <path d="M59.6692 21.1253C59.6692 21.1077 59.6744 21.0937 59.6846 21.0831C59.6983 21.069 59.7137 21.062 59.7308 21.062H60.1972C60.2143 21.062 60.228 21.069 60.2382 21.0831C60.2519 21.0937 60.2588 21.1077 60.2588 21.1253V23.6967C60.2588 23.7143 60.2519 23.7301 60.2382 23.7442C60.228 23.7548 60.2143 23.7601 60.1972 23.7601H59.7308C59.7137 23.7601 59.6983 23.7548 59.6846 23.7442C59.6744 23.7301 59.6692 23.7143 59.6692 23.6967V23.5277C59.6692 23.5172 59.6658 23.5101 59.659 23.5066C59.6521 23.5031 59.6453 23.5066 59.6385 23.5172C59.4984 23.7037 59.2882 23.797 59.008 23.797C58.7482 23.797 58.5295 23.7196 58.3518 23.5647C58.1775 23.4098 58.0904 23.1898 58.0904 22.9047V21.1253C58.0904 21.1077 58.0955 21.0937 58.1057 21.0831C58.1194 21.069 58.1348 21.062 58.1519 21.062H58.6235C58.6406 21.062 58.6542 21.069 58.6645 21.0831C58.6782 21.0937 58.685 21.1077 58.685 21.1253V22.7305C58.685 22.8959 58.726 23.0279 58.808 23.1265C58.8935 23.225 59.0114 23.2743 59.1617 23.2743C59.3155 23.2743 59.4386 23.225 59.5308 23.1265C59.6231 23.0279 59.6692 22.8959 59.6692 22.7305V21.1253Z" fill="#A9A9A9"/>
  <path d="M62.6904 20.1274C62.6904 20.1098 62.6955 20.0957 62.7057 20.0852C62.7194 20.0711 62.7348 20.0641 62.7519 20.0641H63.2235C63.2406 20.0641 63.2542 20.0711 63.2645 20.0852C63.2782 20.0957 63.285 20.1098 63.285 20.1274V23.6967C63.285 23.7143 63.2782 23.7301 63.2645 23.7442C63.2542 23.7548 63.2406 23.7601 63.2235 23.7601H62.7519C62.7348 23.7601 62.7194 23.7548 62.7057 23.7442C62.6955 23.7301 62.6904 23.7143 62.6904 23.6967V23.5383C62.6904 23.5277 62.6869 23.5207 62.6801 23.5172C62.6733 23.5137 62.6664 23.5172 62.6596 23.5277C62.5092 23.7108 62.3127 23.8023 62.0701 23.8023C61.8274 23.8023 61.6224 23.7372 61.4549 23.6069C61.2875 23.4767 61.1662 23.2954 61.091 23.0631C61.0295 22.866 60.9987 22.646 60.9987 22.4031C60.9987 22.1532 61.0278 21.9385 61.0859 21.7589C61.161 21.5266 61.2824 21.3453 61.4498 21.2151C61.6173 21.0849 61.8275 21.0197 62.0803 21.0197C62.3162 21.0197 62.5092 21.1077 62.6596 21.2837C62.6664 21.2908 62.6733 21.2943 62.6801 21.2943C62.6869 21.2908 62.6904 21.2837 62.6904 21.2732V20.1274ZM62.5673 23.0209C62.6459 22.8765 62.6852 22.6724 62.6852 22.4084C62.6852 22.1338 62.6425 21.9244 62.5571 21.7801C62.4648 21.6252 62.3349 21.5477 62.1675 21.5477C61.9932 21.5477 61.8565 21.6217 61.7574 21.7695C61.6549 21.9244 61.6036 22.1391 61.6036 22.4137C61.6036 22.6601 61.6446 22.8625 61.7266 23.0209C61.8223 23.1898 61.9676 23.2743 62.1624 23.2743C62.3367 23.2743 62.4716 23.1898 62.5673 23.0209Z" fill="#A9A9A9"/>
  <path d="M65.0993 21.0197C65.3146 21.0197 65.5043 21.0585 65.6683 21.1359C65.8324 21.2133 65.9588 21.3207 66.0477 21.458C66.1365 21.5917 66.1809 21.7449 66.1809 21.9173V23.6967C66.1809 23.7143 66.1741 23.7301 66.1604 23.7442C66.1502 23.7548 66.1365 23.7601 66.1194 23.7601H65.6478C65.6307 23.7601 65.6153 23.7548 65.6017 23.7442C65.5914 23.7301 65.5863 23.7143 65.5863 23.6967V23.5277C65.5863 23.5172 65.5829 23.5119 65.576 23.5119C65.5692 23.5084 65.5624 23.5101 65.5555 23.5172C65.3881 23.7073 65.1454 23.8023 64.8276 23.8023C64.5713 23.8023 64.3594 23.7354 64.192 23.6017C64.0279 23.4679 63.9459 23.269 63.9459 23.005C63.9459 22.7305 64.0382 22.5175 64.2227 22.3661C64.4107 22.2113 64.6738 22.1338 65.0122 22.1338H65.5607C65.5778 22.1338 65.5863 22.125 65.5863 22.1074V21.9807C65.5863 21.8434 65.547 21.7378 65.4684 21.6639C65.3898 21.5865 65.2719 21.5477 65.1147 21.5477C64.9848 21.5477 64.8789 21.5724 64.7969 21.6217C64.7183 21.6674 64.6687 21.7325 64.6482 21.817C64.6379 21.8593 64.614 21.8769 64.5764 21.8698L64.0792 21.8065C64.0621 21.8029 64.0467 21.7977 64.0331 21.7906C64.0228 21.7801 64.0194 21.7677 64.0228 21.7537C64.0501 21.5389 64.1612 21.3629 64.356 21.2257C64.5542 21.0884 64.802 21.0197 65.0993 21.0197ZM64.9763 23.3165C65.1437 23.3165 65.2873 23.2708 65.4069 23.1793C65.5265 23.0877 65.5863 22.9716 65.5863 22.8308V22.5826C65.5863 22.565 65.5778 22.5562 65.5607 22.5562H65.1301C64.9489 22.5562 64.8054 22.5914 64.6995 22.6618C64.5969 22.7322 64.5457 22.8325 64.5457 22.9628C64.5457 23.0754 64.585 23.1634 64.6636 23.2268C64.7456 23.2866 64.8498 23.3165 64.9763 23.3165Z" fill="#A9A9A9"/>
  <path d="M68.2047 21.0197C68.4816 21.0197 68.702 21.1042 68.866 21.2732C69.0335 21.4421 69.1172 21.6727 69.1172 21.9649V23.6967C69.1172 23.7143 69.1104 23.7301 69.0967 23.7442C69.0864 23.7548 69.0728 23.7601 69.0557 23.7601H68.5841C68.567 23.7601 68.5516 23.7548 68.5379 23.7442C68.5277 23.7301 68.5226 23.7143 68.5226 23.6967V22.0916C68.5226 21.9297 68.4781 21.7994 68.3893 21.7009C68.3004 21.5988 68.1825 21.5477 68.0356 21.5477C67.8886 21.5477 67.769 21.597 67.6767 21.6956C67.5879 21.7941 67.5435 21.9244 67.5435 22.0863V23.6967C67.5435 23.7143 67.5366 23.7301 67.523 23.7442C67.5127 23.7548 67.499 23.7601 67.4819 23.7601H67.0103C66.9932 23.7601 66.9779 23.7548 66.9642 23.7442C66.9539 23.7301 66.9488 23.7143 66.9488 23.6967V20.1274C66.9488 20.1098 66.9539 20.0957 66.9642 20.0852C66.9779 20.0711 66.9932 20.0641 67.0103 20.0641H67.4819C67.499 20.0641 67.5127 20.0711 67.523 20.0852C67.5366 20.0957 67.5435 20.1098 67.5435 20.1274V21.2943C67.5435 21.3049 67.5469 21.3119 67.5537 21.3154C67.5605 21.3189 67.5657 21.3154 67.5691 21.3049C67.7092 21.1148 67.9211 21.0197 68.2047 21.0197Z" fill="#A9A9A9"/>
  <path d="M70.9077 21.0197C71.123 21.0197 71.3127 21.0585 71.4767 21.1359C71.6407 21.2133 71.7672 21.3207 71.856 21.458C71.9449 21.5917 71.9893 21.7449 71.9893 21.9173V23.6967C71.9893 23.7143 71.9825 23.7301 71.9688 23.7442C71.9586 23.7548 71.9449 23.7601 71.9278 23.7601H71.4562C71.4391 23.7601 71.4237 23.7548 71.4101 23.7442C71.3998 23.7301 71.3947 23.7143 71.3947 23.6967V23.5277C71.3947 23.5172 71.3913 23.5119 71.3844 23.5119C71.3776 23.5084 71.3708 23.5101 71.3639 23.5172C71.1965 23.7073 70.9538 23.8023 70.636 23.8023C70.3797 23.8023 70.1678 23.7354 70.0003 23.6017C69.8363 23.4679 69.7543 23.269 69.7543 23.005C69.7543 22.7305 69.8466 22.5175 70.0311 22.3661C70.2191 22.2113 70.4822 22.1338 70.8205 22.1338H71.369C71.3861 22.1338 71.3947 22.125 71.3947 22.1074V21.9807C71.3947 21.8434 71.3554 21.7378 71.2768 21.6639C71.1982 21.5865 71.0803 21.5477 70.9231 21.5477C70.7932 21.5477 70.6873 21.5724 70.6052 21.6217C70.5266 21.6674 70.4771 21.7325 70.4566 21.817C70.4463 21.8593 70.4224 21.8769 70.3848 21.8698L69.8876 21.8065C69.8705 21.8029 69.8551 21.7977 69.8414 21.7906C69.8312 21.7801 69.8278 21.7677 69.8312 21.7537C69.8585 21.5389 69.9696 21.3629 70.1644 21.2257C70.3626 21.0884 70.6104 21.0197 70.9077 21.0197ZM70.7847 23.3165C70.9521 23.3165 71.0956 23.2708 71.2153 23.1793C71.3349 23.0877 71.3947 22.9716 71.3947 22.8308V22.5826C71.3947 22.565 71.3861 22.5562 71.369 22.5562H70.9384C70.7573 22.5562 70.6138 22.5914 70.5078 22.6618C70.4053 22.7322 70.3541 22.8325 70.3541 22.9628C70.3541 23.0754 70.3934 23.1634 70.472 23.2268C70.554 23.2866 70.6582 23.3165 70.7847 23.3165Z" fill="#A9A9A9"/>
  <path d="M74.0131 21.0197C74.2899 21.0197 74.5104 21.1042 74.6744 21.2732C74.8419 21.4421 74.9256 21.6727 74.9256 21.9649V23.6967C74.9256 23.7143 74.9187 23.7301 74.9051 23.7442C74.8948 23.7548 74.8812 23.7601 74.8641 23.7601H74.3925C74.3754 23.7601 74.36 23.7548 74.3463 23.7442C74.3361 23.7301 74.3309 23.7143 74.3309 23.6967V22.0916C74.3309 21.9297 74.2865 21.7994 74.1977 21.7009C74.1088 21.5988 73.9909 21.5477 73.8439 21.5477C73.697 21.5477 73.5774 21.597 73.4851 21.6956C73.3963 21.7941 73.3518 21.9244 73.3518 22.0863V23.6967C73.3518 23.7143 73.345 23.7301 73.3313 23.7442C73.3211 23.7548 73.3074 23.7601 73.2903 23.7601H72.8187C72.8016 23.7601 72.7862 23.7548 72.7726 23.7442C72.7623 23.7301 72.7572 23.7143 72.7572 23.6967V21.1253C72.7572 21.1077 72.7623 21.0937 72.7726 21.0831C72.7862 21.069 72.8016 21.062 72.8187 21.062H73.2903C73.3074 21.062 73.3211 21.069 73.3313 21.0831C73.345 21.0937 73.3518 21.1077 73.3518 21.1253V21.2943C73.3518 21.3049 73.3553 21.3119 73.3621 21.3154C73.3689 21.3189 73.374 21.3154 73.3775 21.3049C73.5176 21.1148 73.7295 21.0197 74.0131 21.0197Z" fill="#A9A9A9"/>
</svg>
