<svg width="100" height="24" viewBox="0 0 100 24" fill="none" xmlns="http://www.w3.org/2000/svg">
  <path d="M35.564 7.04583C35.8558 6.5537 36.1233 6.08681 36.3908 5.63254C36.6704 5.15303 36.9622 4.6609 37.2419 4.18139C37.3148 4.04258 37.3999 3.97949 37.5702 3.97949C39.1629 3.99211 40.7679 3.99211 42.3606 3.97949C42.5552 3.97949 42.6159 4.01735 42.6159 4.23187C42.6038 5.44326 42.6038 6.65465 42.6159 7.87866C42.6159 10.3014 42.6281 12.7242 42.6403 15.1344C42.6403 15.3237 42.6038 15.3868 42.4093 15.3868C41.5095 15.3742 40.622 15.3742 39.7222 15.3868C39.5398 15.3868 39.5034 15.3363 39.5034 15.1596C39.5155 14.6044 39.5034 14.0492 39.5155 13.494C39.5155 13.3425 39.4791 13.2795 39.321 13.2795C38.6644 13.2921 38.02 13.2795 37.3635 13.2795C37.2297 13.2795 37.1568 13.3299 37.096 13.4561C36.8771 13.9987 36.6583 14.5413 36.4394 15.0965C36.3786 15.248 36.3057 15.3111 36.1355 15.3111C35.0412 15.2984 33.9469 15.3111 32.8648 15.3111C32.7919 15.3111 32.7189 15.3111 32.6216 15.3111C32.8891 14.7811 33.1323 14.2763 33.3876 13.7716C34.4454 11.6516 35.4911 9.51909 36.5488 7.39915C36.5732 7.34868 36.5975 7.31082 36.6218 7.26035C36.6826 7.14678 36.6461 7.10892 36.5124 7.0963C36.2084 7.08369 35.9044 7.05845 35.564 7.04583ZM39.4912 7.81557C39.4669 7.81557 39.4426 7.81557 39.4304 7.81557C39.2845 8.11842 39.1386 8.42126 38.9927 8.72411C38.7131 9.31719 38.4334 9.92289 38.1416 10.516C38.0808 10.6422 38.0687 10.7052 38.2389 10.7052C38.6036 10.6926 38.9684 10.6926 39.3331 10.7052C39.4669 10.7052 39.4912 10.6674 39.4912 10.5412C39.479 10.1122 39.479 9.69575 39.479 9.26672C39.479 8.77459 39.4912 8.29508 39.4912 7.81557Z" fill="#A9A9A9"/>
  <path d="M16.1955 7.08375C16.6696 6.08687 17.1317 5.12785 17.5815 4.15622C17.618 4.06789 17.6666 4.03003 17.7639 4.03003C19.1378 4.05527 20.5239 4.00479 21.8978 4.06789C22.3598 4.09312 22.834 4.09312 23.2839 4.2824C24.2444 4.6862 24.7672 5.39285 24.8037 6.49067C24.8523 7.60111 24.3782 8.42133 23.5635 9.0775C23.3325 9.25416 23.0529 9.32987 22.7611 9.43082C22.9799 9.54439 23.1745 9.63272 23.3447 9.75891C23.9283 10.1627 24.135 10.7558 24.2079 11.4372C24.3295 12.7117 23.8189 13.7212 22.907 14.5288C22.4936 14.8947 21.9586 15.0335 21.4358 15.1471C20.9981 15.248 20.5604 15.2859 20.1105 15.2859C18.615 15.2985 17.1195 15.3111 15.624 15.3111C15.1377 15.3111 15.1377 15.3111 15.2593 14.819C15.8793 12.3457 16.4873 9.85986 17.1074 7.3866C17.1074 7.36136 17.1195 7.33612 17.1195 7.3235C17.1803 7.05851 17.1803 7.05851 16.925 7.05851C16.694 7.08375 16.463 7.08375 16.1955 7.08375ZM19.5634 12.6991C19.9646 12.7243 20.2564 12.7495 20.5604 12.6991C21.071 12.6233 21.4358 12.2448 21.4723 11.7274C21.5087 11.2227 21.2048 10.8063 20.6941 10.6801C20.2564 10.5791 19.8065 10.617 19.3688 10.5917C19.2594 10.5917 19.2594 10.6675 19.2473 10.7432C19.15 11.3362 19.0649 11.9419 18.9555 12.535C18.9311 12.6612 18.9676 12.6991 19.077 12.6991C19.2594 12.6991 19.4661 12.6991 19.5634 12.6991ZM20.4874 8.52228C20.7671 8.52228 21.0224 8.52228 21.2656 8.4718C21.7884 8.37085 22.1045 7.96706 22.0802 7.42445C22.0559 6.97018 21.7762 6.70519 21.2291 6.62948C20.9616 6.59162 20.7063 6.61686 20.4388 6.60424C20.2807 6.59162 20.2199 6.65471 20.1956 6.80614C20.147 7.17208 20.074 7.53802 20.0254 7.90396C19.9889 8.09324 19.8795 8.35823 19.9646 8.4718C20.074 8.62323 20.3294 8.49704 20.4874 8.52228Z" fill="#A9A9A9"/>
  <path d="M33.0715 11.8789C32.6216 12.9263 32.0988 13.8727 31.5881 14.8443C31.5395 14.9326 31.4665 14.9705 31.3814 14.9957C29.813 15.4752 28.2689 15.4121 26.8463 14.6045C25.7156 13.9736 24.9496 12.9767 24.7429 11.6013C24.5848 10.5918 24.7307 9.59493 25.0347 8.64853C25.2657 7.94188 25.7034 7.32357 26.1533 6.73049C27.0895 5.48124 28.354 4.74935 29.8008 4.3077C30.506 4.09318 31.1991 3.94176 31.9407 4.06795C32.3176 4.14366 32.6824 4.25723 33.0228 4.43389C33.1444 4.49698 33.2052 4.47174 33.2782 4.37079C33.3754 4.21937 33.4484 3.97962 33.6064 3.967C33.7524 3.95438 33.9104 4.11842 34.0685 4.19413C34.5305 4.44651 34.9804 4.69888 35.4545 4.93863C35.5883 5.00173 35.5761 5.0522 35.5032 5.16577C34.956 6.02384 34.4211 6.89453 33.8861 7.76522C33.801 7.90402 33.7402 7.90402 33.6186 7.81569C32.2569 6.89453 30.4817 6.89453 29.12 7.84093C28.0865 8.56019 27.9284 9.94825 28.1837 10.8316C28.2689 11.1344 28.4026 11.412 28.5607 11.677C28.6458 11.8158 28.7674 11.9041 28.9011 11.9925C29.4604 12.3584 30.044 12.636 30.7249 12.5982C31.2963 12.5729 31.8435 12.4594 32.3541 12.1944C32.5608 12.0682 32.804 11.9925 33.0715 11.8789Z" fill="#A9A9A9"/>
  <path d="M69.8996 15.349C69.4255 15.349 68.9513 15.349 68.4649 15.349C68.3434 15.349 68.319 15.3111 68.2947 15.185C68.2339 14.7938 68.2826 14.4026 68.3069 14.0114C68.3069 13.9609 68.3434 13.8726 68.2826 13.8474C68.2096 13.8221 68.1731 13.8978 68.1367 13.9609C67.7597 14.4909 67.2977 14.9326 66.6898 15.1597C65.6685 15.5383 64.3189 15.4121 63.5407 14.4657C62.9814 13.7843 62.8477 12.9893 63.0909 12.1565C63.3948 11.1217 64.1 10.4782 65.097 10.2384C66.3007 9.94821 67.5166 9.70845 68.7446 9.56965C68.8419 9.55703 68.8783 9.50655 68.927 9.41822C69.1215 8.98919 68.9148 8.44659 68.319 8.38349C67.6138 8.30778 67.0546 8.5223 66.702 9.19109C66.6533 9.29204 66.5925 9.30466 66.4953 9.27942C65.7414 9.11538 64.9754 8.95133 64.2216 8.81253C64.0392 8.77467 64.0271 8.71158 64.1122 8.56015C64.5742 7.67685 65.2794 7.08377 66.1791 6.78092C67.6503 6.30141 69.1458 6.26356 70.617 6.7683C71.4316 7.04591 72.0396 7.5759 72.1855 8.5223C72.2584 8.98919 72.1611 9.44346 72.0882 9.89773C71.8693 11.2984 71.6383 12.6991 71.4195 14.0997C71.3708 14.4405 71.4073 14.7938 71.4803 15.1345C71.5167 15.3111 71.4681 15.349 71.2979 15.349C70.8237 15.349 70.3617 15.349 69.8996 15.349ZM68.5987 11.1344C68.1367 11.3489 67.6868 11.4246 67.2491 11.5634C66.9208 11.6643 66.6047 11.8032 66.4345 12.1312C66.2764 12.4341 66.2886 12.7496 66.4466 13.0398C66.6047 13.33 66.8965 13.3552 67.1883 13.3174C67.6382 13.2669 67.9908 13.0145 68.2218 12.6234C68.4771 12.1943 68.5501 11.6896 68.5987 11.1344Z" fill="#A9A9A9"/>
  <path d="M58.1545 8.06806C58.2274 8.03021 58.2639 7.99235 58.3004 7.92926C58.6773 7.19737 59.3217 6.84405 60.0633 6.68001C60.805 6.50335 61.5467 6.52858 62.2276 6.945C62.8963 7.3488 63.2002 7.96711 63.1516 8.78733C63.0908 9.75896 62.872 10.718 62.7382 11.677C62.5802 12.7117 62.3978 13.7338 62.2397 14.7686C62.1546 15.349 62.1546 15.349 61.5832 15.349C60.8172 15.349 60.039 15.349 59.273 15.349C59.1028 15.349 59.0542 15.3112 59.0785 15.1345C59.2852 13.9105 59.4797 12.6739 59.6864 11.4499C59.7715 10.8946 59.881 10.352 59.9418 9.79682C60.0512 8.96399 59.6256 8.71161 58.8475 8.88828C58.3368 9.00184 58.1301 9.45612 58.0329 9.93563C57.8262 10.8694 57.7168 11.8284 57.5587 12.7748C57.425 13.5698 57.2912 14.3648 57.1696 15.1724C57.1453 15.3112 57.1088 15.3617 56.9629 15.3617C56.0875 15.3617 55.2243 15.349 54.3489 15.3617C54.1422 15.3617 54.1422 15.2733 54.1665 15.1219C54.3732 13.8222 54.592 12.5225 54.7987 11.2354C55.0297 9.8473 55.2486 8.44662 55.4674 7.05857C55.4917 6.89453 55.5647 6.84405 55.7228 6.84405C56.5131 6.86929 57.3034 6.88191 58.0937 6.84405C58.2882 6.83143 58.3368 6.90714 58.3004 7.0838C58.2153 7.38665 58.1666 7.71474 58.1545 8.06806Z" fill="#A9A9A9"/>
  <path d="M76.1005 8.04273C76.2707 7.89131 76.3437 7.70203 76.4653 7.55061C76.8422 7.08371 77.3528 6.84396 77.9121 6.70515C78.6173 6.52849 79.3347 6.52849 80.0034 6.88181C80.6721 7.23514 81.049 7.79036 81.0733 8.57272C81.0977 9.22889 80.9396 9.85982 80.8423 10.5034C80.7086 11.3741 80.5627 12.2321 80.4168 13.1028C80.3074 13.7969 80.1858 14.4909 80.0885 15.1849C80.0642 15.3237 80.0277 15.3742 79.8818 15.3742C78.9821 15.3616 78.0824 15.3742 77.1826 15.3742C77.0367 15.3742 76.9759 15.3616 77.0124 15.1723C77.2191 13.9483 77.4136 12.7243 77.6082 11.5003C77.7298 10.7179 77.9121 9.93554 77.9121 9.14056C77.9121 8.78724 77.8513 8.72414 77.5109 8.72414C76.7328 8.72414 76.0276 9.39293 75.8938 10.2636C75.6263 11.9041 75.3588 13.5445 75.1035 15.1849C75.0792 15.3363 75.0184 15.3742 74.8725 15.3742C74.0092 15.3616 73.146 15.3616 72.2827 15.3742C72.1004 15.3742 72.0639 15.3237 72.1004 15.1471C72.3435 13.7338 72.5624 12.3331 72.7934 10.9198C72.9879 9.73364 73.1703 8.54748 73.3527 7.36132C73.4256 6.8692 73.4256 6.85658 73.9241 6.85658C74.6172 6.85658 75.2981 6.8692 75.9911 6.85658C76.1978 6.85658 76.2707 6.88181 76.2343 7.12157C76.1613 7.39918 76.0762 7.70203 76.1005 8.04273Z" fill="#A9A9A9"/>
  <path d="M96.1499 11.4371C95.2867 11.4371 94.4356 11.4371 93.5723 11.4371C93.4021 11.4371 93.3413 11.4876 93.3413 11.6642C93.3534 11.8787 93.3413 12.1059 93.3413 12.3204C93.3413 12.7242 93.5115 12.9639 93.8884 13.1027C94.6544 13.393 95.4326 13.0775 95.7973 12.3204C95.8824 12.1563 95.9675 12.1185 96.1256 12.1563C96.8916 12.2952 97.6697 12.434 98.4357 12.5475C98.6303 12.5728 98.5816 12.6359 98.5208 12.7494C98.0831 13.6201 97.4266 14.2637 96.5998 14.7179C95.8095 15.1596 94.9584 15.3489 94.0708 15.3236C92.9401 15.2858 91.9309 14.9451 91.1163 14.0744C90.788 13.7211 90.557 13.3173 90.3624 12.863C90.3138 12.7368 90.3746 12.6863 90.4597 12.6359C91.1528 12.169 91.8336 11.6642 92.4902 11.1342C92.6726 10.9828 92.8549 10.8314 93.0495 10.6926C93.1589 10.6169 93.1346 10.5664 93.0495 10.5033C92.3443 9.98594 91.6999 9.38024 90.9339 8.95121C90.7758 8.86288 90.7272 8.79978 90.8731 8.62312C91.6634 7.65148 92.5145 6.75556 93.779 6.49057C95.08 6.21296 96.3566 6.28867 97.4995 7.10888C98.2533 7.65148 98.691 8.43384 98.9221 9.355C99.0558 9.88499 99.0436 10.4024 99.0315 10.9323C99.0315 11.0711 98.9829 11.2099 98.9464 11.3488C98.9099 11.4623 98.8126 11.4118 98.7397 11.4118C97.8643 11.4497 97.001 11.4497 96.1499 11.4371C96.1499 11.4497 96.1499 11.4371 96.1499 11.4371ZM94.8003 9.8219C94.8003 9.83451 94.8003 9.83451 94.8003 9.8219C95.1408 9.83451 95.469 9.83451 95.8095 9.83451C95.8703 9.83451 95.9554 9.85975 95.9797 9.74618C96.1378 9.12787 95.7973 8.30765 95.0678 8.28242C94.3383 8.25718 93.706 8.72407 93.6574 9.68309C93.6453 9.82189 93.7304 9.8219 93.8155 9.8219C94.1438 9.8219 94.472 9.8219 94.8003 9.8219Z" fill="#A9A9A9"/>
  <path d="M50.2028 6.83129C50.4824 6.83129 50.7621 6.84391 51.0417 6.83129C51.1876 6.83129 51.2363 6.88176 51.212 7.02057C51.1147 7.61364 51.0053 8.1941 50.9202 8.78718C50.8958 8.92599 50.8472 8.98908 50.7135 8.97646C50.1663 8.95122 49.6192 9.0017 49.0721 8.95122C48.9262 8.93861 48.8289 8.97646 48.8046 9.17836C48.6587 10.1879 48.4885 11.1973 48.3304 12.1942C48.1723 13.1659 48.0021 14.1501 47.8562 15.1218C47.8319 15.2732 47.7833 15.311 47.6495 15.2984C46.7741 15.2984 45.9108 15.2858 45.0354 15.2984C44.8774 15.2984 44.8652 15.2479 44.8895 15.1091C45.0597 14.0744 45.23 13.0397 45.4002 12.0049C45.5461 11.0712 45.7041 10.1248 45.85 9.19098C45.8744 9.03956 45.8744 8.97646 45.692 8.95122C45.388 8.92599 45.0841 8.98908 44.7801 8.96384C44.622 8.95123 44.5612 8.91337 44.5977 8.73671C44.695 8.14363 44.7923 7.56317 44.8774 6.97009C44.8895 6.84391 44.9503 6.80605 45.0597 6.80605C45.388 6.81867 45.7041 6.79343 46.0324 6.81867C46.2148 6.83129 46.2634 6.75557 46.2999 6.57891C46.385 5.98584 46.4945 5.39276 46.7863 4.85015C47.1145 4.21922 47.6495 3.81542 48.2818 3.58829C49.4611 3.15925 50.6527 3.2602 51.8564 3.48734C51.9415 3.49996 51.9779 3.53781 51.9536 3.63876C51.8564 4.2066 51.7591 4.78706 51.674 5.36752C51.6497 5.50633 51.601 5.53156 51.4916 5.50633C51.1025 5.44323 50.7256 5.43061 50.3365 5.45585C50.0083 5.48109 49.68 5.53156 49.4611 5.84703C49.2788 6.11202 49.2666 6.41487 49.2423 6.71772C49.2301 6.84391 49.3395 6.80605 49.4003 6.81867C49.6314 6.83129 49.9232 6.83129 50.2028 6.83129Z" fill="#A9A9A9"/>
  <path d="M89.9247 11.841C89.7545 12.27 89.5113 12.636 89.256 12.9767C88.8304 13.5319 88.3684 14.0619 87.8091 14.4909C86.8851 15.1849 85.8638 15.4625 84.733 15.3237C84.1251 15.248 83.5536 15.0966 83.0308 14.7811C82.1068 14.2007 81.5718 13.3426 81.3773 12.2574C81.1219 10.781 81.3773 9.40557 82.2892 8.2068C82.8849 7.41182 83.7117 6.93231 84.6236 6.59161C85.5233 6.2509 86.4474 6.20043 87.3593 6.51589C88.6359 6.97017 89.5843 7.96704 89.6937 9.46867C89.7058 9.62009 89.6937 9.67056 89.5356 9.67056C88.721 9.65794 87.9064 9.67056 87.0918 9.67056C86.9945 9.67056 86.9337 9.67056 86.9094 9.54438C86.8243 9.06487 86.6176 8.64845 86.1069 8.56012C85.5355 8.44655 85.0127 8.59798 84.6722 9.11534C84.1616 9.8977 83.8819 10.7558 84.0765 11.7148C84.2588 12.6233 85.0005 13.2543 85.8881 12.9893C86.3136 12.8631 86.5446 12.5224 86.7027 12.1312C86.7878 11.9167 86.8972 11.8536 87.1039 11.8536C88.028 11.841 88.952 11.841 89.9247 11.841Z" fill="#A9A9A9"/>
  <path d="M53.3032 6.86914C53.7531 6.86914 54.2151 6.88176 54.665 6.86914C54.8352 6.86914 54.8839 6.91961 54.8595 7.08366C54.6528 8.30767 54.4583 9.51906 54.2516 10.7431C54.0814 11.7652 53.9233 12.7999 53.7653 13.8347C53.6923 14.2889 53.6072 14.7432 53.5464 15.1975C53.5343 15.3237 53.4856 15.3615 53.364 15.3615C52.4157 15.3615 51.4795 15.3615 50.5311 15.3615C50.3852 15.3615 50.3852 15.2984 50.3974 15.1849C50.6527 13.6706 50.8959 12.1564 51.139 10.6547C51.3336 9.45597 51.5281 8.2572 51.7105 7.05842C51.7348 6.907 51.7834 6.88176 51.9172 6.88176C52.3792 6.86914 52.8412 6.86914 53.3032 6.86914Z" fill="#A9A9A9"/>
  <path d="M6.72396 3.00791C8.53558 2.99529 10.2864 3.34861 11.9764 4.0174C12.1345 4.08049 12.2318 4.16882 12.3047 4.34548C13.1315 6.5159 13.4233 8.77464 13.2409 11.0965C13.1193 12.6107 12.7911 14.0871 12.2682 15.513C12.2196 15.6392 12.1345 15.6771 12.0372 15.7275C10.1648 16.4973 8.23161 16.8254 6.2133 16.7623C4.49895 16.6992 2.83323 16.3458 1.22831 15.7149C1.11888 15.6644 1.05809 15.614 1.02161 15.4878C0.279944 13.4562 -0.0726527 11.3489 0.0124569 9.16582C0.085408 7.4623 0.413688 5.82187 1.03377 4.23192C1.07025 4.13097 1.13104 4.09311 1.21615 4.05525C2.46848 3.56313 3.75728 3.24766 5.08256 3.08362C5.62969 3.02052 6.17683 2.98267 6.72396 3.00791ZM13.1437 9.69581C13.1315 9.32986 13.1193 8.86297 13.0707 8.39608C12.9491 7.02065 12.6452 5.69568 12.171 4.40858C12.1223 4.28239 12.0494 4.20668 11.9156 4.1562C9.82438 3.31075 7.64801 3.02052 5.423 3.2098C4.04908 3.33599 2.72381 3.63884 1.435 4.13097C1.27694 4.19406 1.16752 4.28239 1.10672 4.44643C0.583907 5.84711 0.279944 7.29826 0.194835 8.79988C0.0610909 10.9829 0.365054 13.1028 1.07025 15.1597C1.15536 15.4247 1.2891 15.5635 1.54443 15.6518C3.64785 16.4089 5.81207 16.7244 8.03708 16.5225C9.38667 16.3963 10.6876 16.0935 11.9521 15.5761C12.0615 15.5256 12.1223 15.4625 12.171 15.349C12.8154 13.5697 13.1315 11.7148 13.1437 9.69581Z" fill="#A9A9A9"/>
  <path d="M72.5259 18.0113C72.6961 17.9609 72.769 17.8221 72.915 17.759C73.2675 17.6075 73.4621 17.6454 73.6566 17.9735C73.7417 18.1123 73.7904 17.9987 73.8268 17.9482C74.0092 17.7716 74.2038 17.658 74.4591 17.6706C74.763 17.6833 74.9211 17.8473 74.9089 18.1628C74.8846 18.5918 74.7509 19.0082 74.6779 19.4372C74.6658 19.513 74.6415 19.5887 74.6415 19.6644C74.6293 19.8537 74.5199 19.8915 74.374 19.8537C74.2281 19.8158 74.301 19.6896 74.3253 19.6139C74.3983 19.1723 74.4956 18.7432 74.5807 18.3016C74.6293 18.024 74.4469 17.8852 74.1794 17.9735C73.8147 18.0997 73.6809 18.4025 73.608 18.7558C73.5472 19.0587 73.4864 19.3615 73.4256 19.6644C73.4013 19.7653 73.4013 19.8537 73.2554 19.8537C73.0852 19.8663 73.0608 19.7906 73.0852 19.6391C73.1824 19.1849 73.2675 18.7306 73.3527 18.2763C73.4013 18.024 73.2311 17.8725 72.9879 17.9609C72.7204 18.0492 72.538 18.2385 72.4529 18.5161C72.3313 18.8946 72.2705 19.2858 72.1976 19.6644C72.1611 19.8537 72.0639 19.8663 71.9423 19.841C71.772 19.8158 71.8693 19.7022 71.8815 19.6139C71.9909 19.0461 72.1003 18.4908 72.2219 17.923C72.2462 17.8347 72.2219 17.7085 72.38 17.6959C72.6231 17.6833 72.5624 17.8473 72.5259 18.0113Z" fill="#A9A9A9"/>
  <path d="M61.34 17.9738C61.4859 17.8728 61.5831 17.7971 61.6926 17.7466C62.0452 17.57 62.4342 17.734 62.568 18.1126C62.7625 18.6425 62.5315 19.3997 62.0938 19.7277C61.729 19.9927 61.4616 19.9423 61.036 19.5385C60.9631 19.8792 60.8901 20.1946 60.8415 20.5227C60.8172 20.6489 60.7685 20.6868 60.6591 20.6868C60.5253 20.6868 60.4767 20.6615 60.5132 20.5101C60.6956 19.6646 60.8536 18.8066 61.036 17.9611C61.0482 17.8854 61.0238 17.7592 61.1454 17.734C61.3035 17.6835 61.4008 17.7466 61.34 17.9738ZM62.3005 18.6552C62.3126 18.2387 62.2032 18.0495 61.9722 17.9738C61.7655 17.9107 61.5223 18.0368 61.3764 18.2892C61.2184 18.5542 61.1576 18.8444 61.1819 19.1599C61.1941 19.3618 61.2913 19.5006 61.4494 19.5637C61.6196 19.6268 61.7898 19.6142 61.9357 19.4754C62.1911 19.223 62.2762 18.9202 62.3005 18.6552Z" fill="#A9A9A9"/>
  <path d="M96.1863 19.5764C96.1012 19.6521 96.0283 19.7152 95.9553 19.7657C95.6392 20.0054 95.2015 19.9045 95.007 19.5511C94.6787 18.9328 95.0313 17.9612 95.6757 17.7214C95.931 17.6205 96.162 17.6836 96.3566 17.8855C96.393 17.9233 96.4174 18.0117 96.4903 17.9738C96.5268 17.9486 96.5389 17.8729 96.5511 17.8098C96.5997 17.5574 96.6484 17.305 96.697 17.0526C96.7213 16.9265 96.7821 16.876 96.9037 16.876C97.0253 16.876 97.0496 16.9138 97.0253 17.04C96.8429 17.9107 96.6727 18.7688 96.5025 19.6395C96.4903 19.7152 96.5025 19.8287 96.3566 19.854C96.1012 19.8918 96.2107 19.7026 96.1863 19.5764ZM95.238 18.9328C95.238 19.2357 95.2866 19.4502 95.5055 19.5764C95.6878 19.6647 95.8702 19.6016 96.004 19.4628C96.2958 19.16 96.4052 18.794 96.3566 18.3776C96.3322 18.1883 96.235 18.0369 96.0404 17.9864C95.8459 17.9233 95.6757 17.999 95.5419 18.1505C95.3352 18.3902 95.2501 18.6804 95.238 18.9328Z" fill="#A9A9A9"/>
  <path d="M67.7354 19.551C67.6625 19.8791 67.5774 20.2071 67.5409 20.5352C67.5044 20.7497 67.3707 20.6866 67.2612 20.674C67.1032 20.6614 67.2126 20.5478 67.2248 20.4847C67.395 19.6267 67.5652 18.7686 67.7476 17.9105C67.7597 17.8348 67.7597 17.7465 67.8692 17.7213C68.0515 17.6834 68.088 17.7843 68.0515 17.9358C68.1488 17.9736 68.1853 17.8853 68.2461 17.8348C68.6959 17.5067 69.2309 17.7086 69.316 18.2765C69.4011 18.7812 69.2795 19.2481 68.9148 19.6267C68.623 19.9169 68.088 20.0305 67.8084 19.5888C67.7962 19.5762 67.7719 19.5636 67.7354 19.551ZM67.8692 19.0084C67.8692 19.3238 67.9664 19.5131 68.1731 19.5762C68.4163 19.6519 68.623 19.551 68.7932 19.2734C68.927 19.0588 68.9877 18.8191 68.9999 18.5667C69.0242 18.2891 68.8905 18.062 68.6838 17.9736C68.4892 17.8979 68.2582 17.9989 68.1002 18.2386C67.9543 18.4784 67.8692 18.7307 67.8692 19.0084Z" fill="#A9A9A9"/>
  <path d="M75.8938 17.8855C76.0154 17.8981 76.064 17.8224 76.1248 17.7845C76.4896 17.5574 76.903 17.6962 77.0732 18.1126C77.2799 18.63 77.0489 19.4376 76.599 19.7404C76.1978 20.018 75.8938 19.9549 75.5412 19.5133C75.4804 19.5637 75.4804 19.6395 75.4683 19.7152C75.4561 19.8666 75.3588 19.8792 75.2494 19.8666C75.1035 19.8414 75.1765 19.7404 75.1886 19.6773C75.3588 18.8192 75.5291 17.9612 75.7115 17.1031C75.7236 17.0274 75.7236 16.9138 75.8573 16.9138C76.0032 16.9138 76.1005 16.9138 76.0397 17.1157C75.9911 17.3555 75.9546 17.6205 75.8938 17.8855ZM76.8057 18.6047C76.8179 18.2388 76.7084 18.0495 76.4896 17.9738C76.2829 17.8981 76.0397 18.0243 75.8938 18.2893C75.7601 18.5038 75.6993 18.7435 75.675 18.9959C75.6507 19.2735 75.7844 19.5133 75.9668 19.5764C76.1978 19.6521 76.4531 19.5511 76.599 19.2861C76.7328 19.0716 76.8057 18.8192 76.8057 18.6047Z" fill="#A9A9A9"/>
  <path d="M91.5782 17.6709C91.6998 17.6583 91.8457 17.7088 91.9795 17.7718C92.1862 17.8602 92.2956 18.0242 92.2956 18.264C92.2834 18.5794 92.1862 18.8697 92.1375 19.1725C92.1132 19.3366 92.0767 19.5006 92.101 19.6647C92.1132 19.7277 92.1618 19.8287 92.0403 19.8413C91.9551 19.8413 91.8092 19.9044 91.7849 19.7404C91.7606 19.5637 91.6755 19.6142 91.5904 19.6773C91.4323 19.8161 91.2378 19.8666 91.0433 19.8792C90.7393 19.9044 90.4596 19.6773 90.411 19.3997C90.3502 19.0716 90.5326 18.7687 90.8609 18.6678C91.1284 18.5794 91.408 18.5794 91.6877 18.5668C91.9187 18.5542 92.0038 18.4659 91.9916 18.2514C91.9916 18.1252 91.9187 18.0368 91.8214 17.9864C91.5539 17.8476 91.177 17.9359 91.0189 18.2009C90.9217 18.3649 90.8122 18.3145 90.7028 18.2892C90.5934 18.2766 90.6663 18.1883 90.6907 18.1504C90.8609 17.8097 91.1648 17.6709 91.5782 17.6709ZM91.1284 19.6268C91.4931 19.6268 91.8457 19.2356 91.8457 18.8697C91.8457 18.794 91.8214 18.794 91.7484 18.8066C91.5174 18.8444 91.2743 18.8697 91.0311 18.9201C90.8122 18.958 90.7028 19.1347 90.7271 19.3492C90.7636 19.5132 90.9217 19.6268 91.1284 19.6268Z" fill="#A9A9A9"/>
  <path d="M85.0491 18.289C85.2315 17.5823 86.192 17.5192 86.5811 17.8852C86.7756 18.0618 86.727 18.289 86.7026 18.5035C86.6419 18.9199 86.4838 19.3237 86.5324 19.7528C86.5446 19.8158 86.5081 19.8537 86.4473 19.8537C86.3622 19.8411 86.2406 19.9042 86.2163 19.7906C86.1677 19.5509 86.0826 19.6644 85.9731 19.7275C85.7664 19.8537 85.5476 19.9294 85.3044 19.8789C85.0005 19.8032 84.8302 19.6013 84.8181 19.3237C84.8059 19.0335 84.9883 18.7811 85.2679 18.6928C85.5233 18.6045 85.8029 18.6045 86.0704 18.5918C86.2406 18.5792 86.3865 18.5666 86.4108 18.3395C86.423 18.1123 86.3014 18.0114 86.119 17.9735C85.8759 17.923 85.6084 17.9357 85.4625 18.1754C85.3409 18.3521 85.2072 18.3268 85.0491 18.289ZM85.5476 19.6266C85.9853 19.6013 86.2042 19.2732 86.2649 18.9073C86.2771 18.819 86.2406 18.8064 86.1677 18.819C85.9367 18.8568 85.7057 18.8694 85.4746 18.9199C85.2436 18.9704 85.1464 19.1218 85.1707 19.3363C85.1828 19.513 85.3287 19.6266 85.5476 19.6266Z" fill="#A9A9A9"/>
  <path d="M97.3292 18.289C97.4386 17.923 97.7061 17.759 98.0344 17.6959C98.2289 17.658 98.4356 17.6707 98.6423 17.759C98.9584 17.8978 99.08 18.1502 98.9949 18.4909C98.8977 18.9073 98.7639 19.3237 98.8125 19.7654C98.8247 19.8285 98.8125 19.8789 98.7396 19.8663C98.6545 19.8537 98.5207 19.9294 98.4964 19.7906C98.4478 19.5761 98.3748 19.6518 98.2654 19.7275C98.0709 19.8663 97.852 19.942 97.6088 19.8915C97.3049 19.8285 97.1103 19.6013 97.1103 19.3237C97.0982 19.0461 97.2927 18.7811 97.5724 18.6928C97.8399 18.6044 98.1195 18.6171 98.3992 18.5918C98.6545 18.5792 98.7153 18.4909 98.7031 18.2511C98.7031 18.1502 98.6545 18.0871 98.5694 18.024C98.3262 17.8726 97.925 17.923 97.7669 18.1502C97.621 18.3268 97.4994 18.3521 97.3292 18.289ZM98.5572 18.7937C98.2897 18.8316 98.0465 18.8568 97.8034 18.9073C97.5359 18.9578 97.4021 19.1344 97.4386 19.3489C97.4751 19.5635 97.7061 19.677 97.9614 19.6139C98.3748 19.5004 98.5086 19.1849 98.5572 18.7937Z" fill="#A9A9A9"/>
  <path d="M82.812 18.3017C82.9944 17.5951 83.9792 17.5067 84.3561 17.8979C84.4777 18.0241 84.5142 18.1881 84.4777 18.3648C84.4291 18.655 84.3683 18.9453 84.3075 19.2355C84.2832 19.3743 84.2832 19.5005 84.271 19.6393C84.271 19.715 84.3561 19.8412 84.1981 19.8538C84.1008 19.8664 83.9792 19.9043 83.9427 19.7276C83.9184 19.551 83.809 19.6645 83.7603 19.7024C83.5658 19.8538 83.347 19.9169 83.1038 19.8917C82.7998 19.8538 82.5931 19.6267 82.581 19.3364C82.5567 19.0462 82.7512 18.7686 83.0308 18.6803C83.274 18.6045 83.5293 18.5919 83.7847 18.5793C84.1008 18.5667 84.1494 18.5162 84.1616 18.2891C84.1616 18.0746 84.0278 17.9484 83.7603 17.9358C83.5172 17.9231 83.2983 17.9862 83.1646 18.226C83.0673 18.4153 82.9336 18.2765 82.812 18.3017ZM84.0278 18.7938C83.7725 18.8317 83.5293 18.8569 83.274 18.9074C83.0065 18.9579 82.8728 19.1345 82.9214 19.3491C82.9579 19.551 83.1889 19.6645 83.4321 19.614C83.7847 19.5383 83.9792 19.2733 84.0278 18.7938Z" fill="#A9A9A9"/>
  <path d="M79.5048 17.6833C79.5899 17.6833 79.6751 17.6834 79.7723 17.7212C80.1857 17.8474 80.3073 18.0745 80.2222 18.5036C80.1614 18.8064 80.1006 19.1093 80.0398 19.4121C80.0277 19.5004 80.0277 19.5888 80.0277 19.6771C80.0277 19.7402 80.1006 19.8411 79.9669 19.8411C79.8818 19.8411 79.7358 19.9169 79.7115 19.7528C79.6751 19.5635 79.6021 19.6266 79.5048 19.6897C79.3711 19.7907 79.213 19.8538 79.0428 19.8664C78.7145 19.9042 78.4106 19.715 78.3498 19.4247C78.2768 19.084 78.4592 18.7686 78.7875 18.6676C79.055 18.5793 79.3346 18.5919 79.6143 18.5667C79.7358 18.554 79.8696 18.554 79.9061 18.39C79.9547 18.1881 79.8939 18.0493 79.7115 17.9736C79.4197 17.86 79.1036 17.9483 78.9334 18.2133C78.8361 18.3774 78.7145 18.3017 78.6051 18.289C78.5322 18.2764 78.5929 18.2007 78.6051 18.1629C78.751 17.86 79.0793 17.6833 79.5048 17.6833ZM79.7966 18.7938C79.5413 18.8317 79.286 18.8569 79.055 18.9074C78.7753 18.9578 78.6416 19.1345 78.7024 19.3743C78.751 19.5762 78.9699 19.6771 79.2252 19.614C79.5413 19.5257 79.7237 19.2733 79.7966 18.7938Z" fill="#A9A9A9"/>
  <path d="M64.1 17.6835C64.2094 17.6708 64.3188 17.6961 64.4282 17.7339C64.7687 17.8601 64.8903 18.062 64.8173 18.4406C64.7687 18.7308 64.7079 19.021 64.6471 19.3113C64.6228 19.4501 64.6106 19.5763 64.6228 19.7151C64.6349 19.7782 64.6836 19.8665 64.562 19.8539C64.4769 19.8539 64.331 19.9296 64.3066 19.7655C64.2823 19.5763 64.2094 19.6267 64.1121 19.7025C63.9662 19.816 63.8082 19.8665 63.6258 19.8917C63.3097 19.9296 63.0057 19.7277 62.9449 19.4501C62.8719 19.1094 63.0543 18.7939 63.3704 18.693C63.6136 18.6172 63.8689 18.6046 64.1243 18.592C64.4282 18.5794 64.5012 18.5163 64.5012 18.2765C64.5012 18.0873 64.3431 17.9611 64.1 17.9485C63.8446 17.9358 63.6379 17.9989 63.5042 18.2387C63.4191 18.3901 63.2732 18.3396 63.2002 18.2892C63.103 18.2261 63.2124 18.1251 63.261 18.062C63.4677 17.7844 63.7474 17.6582 64.1 17.6835ZM64.3918 18.7939C64.1243 18.8318 63.8689 18.857 63.6136 18.9075C63.3704 18.9579 63.2367 19.122 63.2732 19.3239C63.2975 19.5258 63.5042 19.652 63.7474 19.6141C64.1121 19.5636 64.331 19.286 64.3918 18.7939Z" fill="#A9A9A9"/>
  <path d="M60.2458 19.1976C60.1363 19.614 59.6014 20.0052 59.0907 19.8664C58.8597 19.8033 58.6895 19.6645 58.58 19.4374C58.3126 18.8317 58.6652 17.961 59.2731 17.7338C59.577 17.6203 59.8688 17.6455 60.1242 17.8727C60.4038 18.1124 60.416 18.4279 60.3917 18.7686C60.3795 18.8948 60.2822 18.8695 60.2093 18.8695C59.808 18.8695 59.419 18.8821 59.0177 18.8695C58.8354 18.8695 58.7989 18.9452 58.8232 19.0967C58.8597 19.3238 58.9205 19.5257 59.1636 19.6014C59.4068 19.6771 59.6743 19.5888 59.8324 19.3238C59.9418 19.1345 60.0634 19.1219 60.2458 19.1976ZM58.9205 18.5919C59.2366 18.5919 59.5406 18.5919 59.8324 18.5919C59.881 18.5919 59.9175 18.5919 59.9661 18.5919C60.0512 18.5919 60.0755 18.5667 60.0755 18.4657C60.0755 18.0872 59.7594 17.8474 59.4068 17.9736C59.1515 18.0746 58.9934 18.2891 58.9205 18.5919Z" fill="#A9A9A9"/>
  <path d="M70.7751 18.8569C70.5805 18.8569 70.3739 18.8695 70.1793 18.8569C70.0091 18.8443 69.9848 18.92 69.9969 19.0714C70.0213 19.3364 70.155 19.5383 70.3495 19.6014C70.5927 19.6645 70.8723 19.5509 71.0547 19.2986C71.0912 19.2481 71.0912 19.1598 71.1763 19.1598C71.2493 19.1598 71.3587 19.1598 71.4073 19.2102C71.456 19.2607 71.383 19.349 71.3465 19.3995C71.1885 19.614 71.0061 19.8033 70.7508 19.8664C70.0942 20.0178 69.6565 19.6267 69.693 18.9326C69.7295 18.1881 70.2279 17.6581 70.8602 17.696C71.4438 17.7339 71.6627 18.3017 71.5775 18.7812C71.5654 18.8695 71.5046 18.8822 71.4316 18.8695C71.1885 18.8569 70.9818 18.8569 70.7751 18.8569ZM70.082 18.5793C70.1672 18.5793 70.2401 18.5919 70.3131 18.5919C70.5927 18.5919 70.8723 18.5919 71.152 18.5919C71.2249 18.5919 71.2493 18.5541 71.2493 18.4784C71.2493 18.0746 70.9088 17.8474 70.5441 17.9988C70.2887 18.0998 70.1672 18.3017 70.082 18.5793Z" fill="#A9A9A9"/>
  <path d="M49.9354 18.7309C49.911 19.122 49.7408 19.5511 49.2788 19.7908C48.683 20.0937 47.9292 19.7656 48.0022 18.9454C48.0508 18.4406 48.2089 18.0116 48.683 17.7845C49.3274 17.4438 49.9475 17.8602 49.9354 18.7309ZM48.3426 18.9328C48.3426 19.2987 48.4399 19.5006 48.6466 19.5763C48.8654 19.6646 49.1086 19.6142 49.3031 19.387C49.5341 19.1347 49.6071 18.8192 49.6071 18.4911C49.6071 18.2514 49.5098 18.0621 49.291 17.9737C49.0721 17.8854 48.8776 17.9611 48.7074 18.1125C48.4277 18.3523 48.3548 18.6678 48.3426 18.9328Z" fill="#A9A9A9"/>
  <path d="M82.5932 17.734C82.3743 18.1378 82.1676 18.5163 81.9609 18.9075C81.7056 19.387 81.4381 19.8539 81.1706 20.3208C81.0612 20.5227 80.9031 20.6741 80.66 20.712C80.4654 20.7372 80.3803 20.6489 80.4046 20.4722C80.4168 20.3965 80.4411 20.3713 80.5141 20.3713C80.8545 20.3713 81.122 20.0558 81.0733 19.7025C80.9882 19.1094 80.891 18.5037 80.7937 17.9106C80.7815 17.8349 80.7086 17.7214 80.8667 17.7087C80.9761 17.6961 81.0855 17.6961 81.1098 17.8602C81.1706 18.2892 81.2314 18.7182 81.2922 19.1347C81.3044 19.2104 81.2679 19.3239 81.353 19.3366C81.4503 19.3492 81.4624 19.2356 81.4989 19.1599C81.7299 18.7561 81.9488 18.3523 82.1555 17.9233C82.2406 17.7466 82.3622 17.6709 82.5932 17.734Z" fill="#A9A9A9"/>
  <path d="M52.44 19.551C52.3306 19.5384 52.2941 19.6393 52.2333 19.6772C52.0144 19.8412 51.7834 19.9548 51.5038 19.8538C51.2849 19.7781 51.139 19.5636 51.1877 19.3239C51.2728 18.8317 51.3822 18.3396 51.4673 17.8475C51.5038 17.6582 51.6375 17.696 51.7348 17.7087C51.8807 17.7213 51.7834 17.8349 51.7834 17.8979C51.7105 18.3017 51.6254 18.6929 51.5524 19.0967C51.5281 19.2481 51.4673 19.4374 51.6132 19.5384C51.7591 19.6393 51.9415 19.6015 52.0995 19.5258C52.3792 19.3869 52.5129 19.1346 52.5859 18.8317C52.6588 18.5036 52.7196 18.1756 52.7926 17.8601C52.8169 17.7718 52.8291 17.696 52.9506 17.696C53.0965 17.696 53.1573 17.7213 53.1209 17.8979C52.9871 18.4784 52.8777 19.0715 52.7683 19.6519C52.7439 19.8034 52.671 19.8538 52.5372 19.8412C52.3549 19.816 52.5008 19.6898 52.4765 19.6141C52.44 19.6015 52.44 19.5762 52.44 19.551Z" fill="#A9A9A9"/>
  <path d="M93.2683 18.0368C93.402 17.999 93.475 17.8728 93.5844 17.8097C93.7303 17.734 93.8762 17.6709 94.0343 17.6709C94.3382 17.6835 94.5328 17.8728 94.5206 18.1883C94.4841 18.7183 94.3261 19.223 94.241 19.7404C94.2288 19.8035 94.1923 19.8413 94.1194 19.8413C93.9613 19.8539 93.8884 19.8287 93.937 19.6268C94.0343 19.1978 94.1194 18.7687 94.1923 18.3397C94.2531 18.0116 94.0708 17.8602 93.7668 17.9485C93.4871 18.0242 93.3169 18.2135 93.2197 18.4911C93.0859 18.8697 93.0251 19.2735 92.9643 19.6647C92.9279 19.8666 92.8184 19.8539 92.6968 19.8287C92.5388 19.8035 92.6239 19.6899 92.636 19.6016C92.7455 19.0337 92.8671 18.4785 92.9765 17.9107C93.0008 17.7719 93.0251 17.6583 93.2075 17.6961C93.3899 17.734 93.2683 17.8602 93.2683 17.9485C93.2683 17.9864 93.2683 18.0116 93.2683 18.0368Z" fill="#A9A9A9"/>
  <path d="M87.6876 18.0619C87.8091 17.9736 87.9064 17.8852 88.0158 17.8222C88.1496 17.7212 88.3076 17.6833 88.4657 17.6833C88.7697 17.696 88.952 17.8852 88.952 18.2007C88.9399 18.5162 88.8426 18.8316 88.794 19.1345C88.7697 19.3238 88.721 19.5004 88.6846 19.6897C88.6602 19.8033 88.6116 19.8538 88.49 19.8538C88.3684 19.8538 88.3198 19.8285 88.3563 19.6897C88.4535 19.2607 88.5265 18.8316 88.6116 18.4026C88.6846 18.0367 88.5022 17.8726 88.1496 17.9736C87.8213 18.0871 87.6632 18.3395 87.5781 18.6676C87.493 19.0083 87.4322 19.349 87.3593 19.6897C87.3471 19.7528 87.3471 19.8411 87.262 19.8538C87.1891 19.8664 87.1039 19.879 87.0432 19.8411C86.9702 19.8033 87.0188 19.715 87.031 19.6519C87.1526 19.0714 87.2742 18.4783 87.3836 17.8979C87.4079 17.7338 87.4809 17.6834 87.6146 17.7212C87.7848 17.7591 87.6632 17.8726 87.6632 17.9483C87.6754 17.9736 87.6754 17.9988 87.6876 18.0619Z" fill="#A9A9A9"/>
  <path d="M47.0051 17.6836C47.3942 17.6836 47.6617 17.8602 47.7468 18.1505C47.7711 18.2262 47.7954 18.3145 47.686 18.3271C47.6009 18.3398 47.5036 18.4029 47.4428 18.2767C47.2847 17.9612 47.1753 17.9107 46.847 17.9486C46.7011 17.9612 46.5917 18.0369 46.5674 18.1883C46.5309 18.3398 46.6282 18.4155 46.7376 18.4659C46.92 18.5669 47.1145 18.6552 47.3091 18.7562C47.5158 18.8571 47.6373 19.0338 47.6252 19.2609C47.613 19.5007 47.4914 19.69 47.2726 19.7909C46.8957 19.955 46.5188 19.9423 46.1662 19.69C46.0567 19.6016 45.9959 19.4881 45.9716 19.3493C45.9595 19.2735 45.8987 19.16 46.0567 19.1474C46.1662 19.1347 46.2634 19.0969 46.2999 19.2735C46.385 19.6395 46.9322 19.7783 47.1875 19.5259C47.3212 19.3871 47.3091 19.1726 47.1388 19.059C46.9808 18.9581 46.8106 18.895 46.6525 18.8066C46.3485 18.6552 46.2026 18.4533 46.2513 18.201C46.2999 17.8981 46.5552 17.6962 46.8835 17.6836C46.9322 17.671 46.9686 17.6836 47.0051 17.6836Z" fill="#A9A9A9"/>
  <path d="M54.3611 17.6835C54.665 17.6835 54.9325 17.7718 55.0784 18.0621C55.1149 18.1378 55.1879 18.264 55.0784 18.3145C54.9812 18.3649 54.8596 18.4028 54.7866 18.2135C54.7015 17.9485 54.3368 17.8476 54.0936 17.9737C54.0085 18.0242 53.9355 18.0873 53.9355 18.2009C53.9234 18.3271 53.9963 18.4028 54.0936 18.4533C54.2517 18.5416 54.4219 18.6173 54.5921 18.693C54.8961 18.8444 55.042 19.059 55.0055 19.3239C54.969 19.5763 54.738 19.7908 54.4462 19.8539C54.1787 19.917 53.9234 19.8918 53.6802 19.7656C53.5222 19.6899 53.4127 19.5637 53.3762 19.3744C53.3641 19.2987 53.2547 19.1725 53.4127 19.1347C53.5343 19.1094 53.6559 19.0716 53.6924 19.2861C53.7653 19.6268 54.3124 19.753 54.5678 19.5132C54.7258 19.3618 54.7137 19.1599 54.5191 19.0337C54.3732 18.9328 54.203 18.8697 54.045 18.794C53.7045 18.6299 53.5829 18.428 53.6437 18.1504C53.6924 17.8854 53.972 17.6835 54.2881 17.6709C54.3003 17.6835 54.3368 17.6835 54.3611 17.6835Z" fill="#A9A9A9"/>
  <path d="M58.2397 16.9895C58.2032 17.1788 58.1667 17.3554 58.1181 17.5321C58.0938 17.6457 58.0937 17.7466 58.2518 17.734C58.3126 17.734 58.4342 17.6709 58.4099 17.835C58.3977 17.9485 58.3491 18.0242 58.2275 17.999C58.0573 17.9611 58.0208 18.0495 57.9843 18.2009C57.9114 18.5668 57.8384 18.9454 57.7655 19.3113C57.729 19.488 57.729 19.6394 57.9722 19.6142C58.0086 19.6142 58.0938 19.589 58.0816 19.6773C58.0694 19.753 58.1059 19.8666 57.9843 19.8792C57.8141 19.9044 57.6439 19.9297 57.498 19.8035C57.3521 19.6899 57.4007 19.5259 57.425 19.3871C57.498 18.9959 57.5831 18.6173 57.656 18.2261C57.6804 18.1126 57.7168 17.9738 57.5223 17.999C57.4615 18.0116 57.425 17.9738 57.4372 17.9107C57.4493 17.835 57.4493 17.734 57.5466 17.7466C57.7655 17.7719 57.7776 17.6331 57.8019 17.4816C57.8749 17.1535 57.8749 17.1535 58.2397 16.9895Z" fill="#A9A9A9"/>
  <path d="M66.0454 16.9895C66.0089 17.1914 65.9724 17.3554 65.9359 17.5321C65.9116 17.6583 65.9116 17.734 66.0697 17.7214C66.1305 17.7214 66.2399 17.6709 66.2156 17.8097C66.2034 17.9107 66.1791 18.0116 66.0454 17.9864C65.8873 17.9611 65.8143 18.0495 65.79 18.2009C65.7292 18.5795 65.6441 18.958 65.5712 19.3366C65.5469 19.5006 65.5712 19.6142 65.7657 19.589C65.8143 19.589 65.8994 19.5511 65.8873 19.6647C65.8751 19.7404 65.8873 19.8287 65.7779 19.8666C65.4253 19.9801 65.1821 19.7782 65.2307 19.4123C65.2915 18.9959 65.3888 18.5921 65.4739 18.1883C65.4982 18.0621 65.5104 17.9864 65.3523 17.9864C65.2915 17.9864 65.2186 17.9864 65.2551 17.8854C65.2794 17.8223 65.2551 17.6962 65.3645 17.7214C65.5833 17.7592 65.6077 17.6078 65.6198 17.4564C65.6441 17.204 65.8022 17.0778 66.0454 16.9895Z" fill="#A9A9A9"/>
  <path d="M50.3002 19.8538C50.1786 19.8664 50.1421 19.8159 50.1664 19.7024C50.3488 18.8191 50.5312 17.9484 50.7014 17.0651C50.7379 16.8505 50.8838 16.901 50.9932 16.9136C51.1026 16.9263 51.0297 17.0272 51.0175 17.0777C50.8716 17.8222 50.7135 18.5667 50.5676 19.3238C50.5433 19.45 50.5069 19.5762 50.4947 19.7024C50.4947 19.8159 50.4217 19.879 50.3002 19.8538Z" fill="#A9A9A9"/>
  <path d="M77.5351 19.8538C77.4014 19.8791 77.3892 19.816 77.4135 19.6898C77.5351 19.0967 77.6567 18.491 77.7783 17.8853C77.8026 17.7465 77.8755 17.696 78.0093 17.7087C78.1309 17.7087 78.143 17.7591 78.1187 17.8601C77.985 18.4784 77.8512 19.0967 77.7418 19.7276C77.7175 19.8664 77.6445 19.8538 77.5351 19.8538Z" fill="#A9A9A9"/>
  <path d="M55.431 19.8537C55.3215 19.8663 55.2851 19.8284 55.3094 19.6896C55.431 19.0965 55.5647 18.4909 55.6741 17.8852C55.7106 17.7085 55.7957 17.7085 55.9173 17.7085C56.0024 17.7085 56.0267 17.7464 56.0146 17.8347C55.8808 18.4656 55.7593 19.1092 55.6377 19.7527C55.6134 19.8789 55.5282 19.8537 55.431 19.8537Z" fill="#A9A9A9"/>
  <path d="M78.1431 16.901C78.2039 16.9136 78.3255 16.8883 78.289 17.0019C78.2525 17.1155 78.3133 17.3426 78.0701 17.3048C78.0093 17.2921 77.8878 17.3426 77.9242 17.2164C77.9607 17.0902 77.9121 16.8757 78.1431 16.901Z" fill="#A9A9A9"/>
  <path d="M56.0632 16.9012C56.124 16.9138 56.2213 16.8633 56.1848 17.0021C56.1483 17.1409 56.197 17.3176 55.966 17.305C55.8687 17.2924 55.8079 17.2797 55.8322 17.1662C55.8687 17.04 55.8322 16.8507 56.0632 16.9012Z" fill="#A9A9A9"/>
  <path d="M6.68748 12.6737C6.68748 12.2447 6.69963 11.8156 6.68748 11.3866C6.66316 10.7178 6.59021 10.049 6.45646 9.38024C6.28624 8.49694 5.76343 7.82814 5.16766 7.20983C4.62053 6.64199 4.5111 5.67035 4.83938 4.93847C5.26493 4.02992 6.31056 3.76493 7.1495 3.89112C7.95196 4.0173 8.54773 4.4211 8.75442 5.27917C8.92464 5.99844 8.88817 6.69246 8.2924 7.23507C7.36835 8.09314 6.95496 9.17834 6.85769 10.4402C6.80906 11.1469 6.78474 11.8409 6.76043 12.5475C6.76043 12.5854 6.74827 12.6232 6.74827 12.6611C6.73611 12.6737 6.71179 12.6737 6.68748 12.6737Z" fill="#A9A9A9"/>
  <path d="M6.49295 12.6359C6.26194 11.4498 5.49595 10.8693 4.47463 10.5665C4.19499 10.4781 3.91534 10.3898 3.66001 10.251C3.03993 9.93553 2.66302 9.40554 2.62654 8.6989C2.59006 8.11844 2.84539 7.61369 3.34389 7.29822C3.85455 6.98276 4.38952 7.04585 4.88802 7.36132C5.28926 7.61369 5.59322 7.97963 5.81207 8.39605C6.16467 9.05222 6.33489 9.75886 6.40784 10.4907C6.46863 11.1595 6.50511 11.8157 6.51727 12.4845C6.51727 12.535 6.50511 12.5602 6.49295 12.6359Z" fill="#A9A9A9"/>
  <path d="M6.99146 12.472C7.00361 11.4498 7.01577 10.4277 7.2711 9.45609C7.4778 8.67373 7.81823 7.95447 8.48695 7.44972C9.09488 6.99545 9.83655 6.99545 10.335 7.4371C10.9065 7.95447 11.0159 8.77468 10.6512 9.45609C10.2986 10.1123 9.71496 10.352 9.08272 10.5539C8.58422 10.7053 8.11004 10.9072 7.72097 11.2858C7.417 11.576 7.19815 11.9294 7.08872 12.3458C7.06441 12.3962 7.07656 12.4341 6.99146 12.472Z" fill="#A9A9A9"/>
  <path d="M10.8092 9.73364C10.87 9.82197 10.9186 9.87245 10.9551 9.94816C11.3077 10.5665 11.0159 11.5886 10.408 11.9293C9.90946 12.2069 9.38664 12.2321 8.85166 12.1438C8.60849 12.106 8.35317 12.0933 8.11 12.1186C7.78172 12.1312 7.5507 12.3331 7.36833 12.6107C7.34401 12.6486 7.34401 12.7369 7.27106 12.699C7.19811 12.6738 7.24674 12.6107 7.2589 12.5602C7.41696 11.7274 7.97625 11.2479 8.6936 10.9577C9.07052 10.8062 9.45959 10.7053 9.8365 10.5665C10.2377 10.4151 10.5903 10.2005 10.8092 9.73364Z" fill="#A9A9A9"/>
  <path d="M2.69947 9.74634C2.96695 10.3142 3.46545 10.5035 3.97611 10.6675C4.43814 10.8189 4.92448 10.9451 5.33787 11.2227C5.82421 11.5382 6.14033 11.9798 6.26191 12.5729C6.27407 12.6234 6.32271 12.6739 6.24975 12.7117C6.18896 12.737 6.1768 12.6739 6.16465 12.636C5.93363 12.2448 5.60535 12.0934 5.16765 12.106C4.7421 12.1187 4.32871 12.2196 3.90316 12.1817C3.5992 12.1565 3.31955 12.0429 3.05206 11.8915C2.6022 11.6391 2.46845 11.1975 2.44414 10.7054C2.3955 10.352 2.43198 10.0239 2.69947 9.74634Z" fill="#A9A9A9"/>
  <path d="M7.72094 13.7968C8.00059 13.7841 8.11001 13.9103 8.0249 14.2006C8.00059 14.2763 8.0249 14.3015 8.06138 14.352C8.24376 14.5917 8.1708 14.8441 7.879 14.882C7.42914 14.9324 7.47777 15.046 7.4413 14.5413C7.42914 14.3898 7.42914 14.2258 7.39266 14.0744C7.34403 13.8725 7.42914 13.822 7.59936 13.822C7.63583 13.8094 7.67231 13.8094 7.72094 13.7968ZM7.80605 14.4151C7.74526 14.4655 7.59936 14.3772 7.61151 14.5413C7.62367 14.617 7.57504 14.7432 7.7331 14.7179C7.83037 14.6927 7.97627 14.7432 7.97627 14.5665C7.98843 14.4529 7.91548 14.4151 7.80605 14.4151ZM7.7331 13.986C7.67231 14.0113 7.53856 13.9482 7.56288 14.0996C7.57504 14.1627 7.55072 14.2763 7.67231 14.2384C7.75742 14.2132 7.90332 14.2384 7.89116 14.087C7.89116 13.986 7.81821 13.9734 7.7331 13.986Z" fill="#A9A9A9"/>
  <path d="M5.08253 14.3771C5.13116 14.4907 5.19195 14.6043 5.22843 14.7305C5.24059 14.7809 5.31354 14.844 5.22843 14.8819C5.16763 14.9071 5.10684 14.8693 5.07037 14.7935C5.03389 14.7052 5.00957 14.6043 4.96094 14.5159C4.92446 14.4276 4.87583 14.3393 4.77856 14.3645C4.68129 14.3898 4.71777 14.4907 4.70561 14.5538C4.69345 14.6043 4.69345 14.6547 4.68129 14.7052C4.66914 14.7557 4.65698 14.7935 4.59618 14.7935C4.51107 14.7935 4.52323 14.7305 4.53539 14.68C4.57187 14.3898 4.60834 14.0995 4.64482 13.8093C4.64482 13.7714 4.65698 13.7336 4.69345 13.721C4.80288 13.6705 5.24059 13.8219 5.28922 13.9229C5.38649 14.0995 5.30138 14.2636 5.08253 14.3771ZM4.79072 14.049C4.7664 14.2005 4.87583 14.2005 4.96094 14.2005C5.05821 14.2131 5.14332 14.1879 5.14332 14.0617C5.14332 13.885 4.98526 13.9355 4.90015 13.8976C4.77856 13.8724 4.80288 13.986 4.79072 14.049Z" fill="#A9A9A9"/>
  <path d="M3.79372 14.1878C3.79372 14.4654 3.95178 14.5916 4.14632 14.5159C4.19495 14.4907 4.23143 14.4654 4.24359 14.4023C4.24359 14.3393 4.23143 14.3014 4.15848 14.3014C4.09769 14.3014 4.06121 14.2762 4.07337 14.2004C4.08553 14.1374 4.14632 14.1121 4.19495 14.15C4.26791 14.1878 4.43812 14.1247 4.42597 14.2635C4.41381 14.4023 4.43812 14.5916 4.26791 14.68C4.00042 14.8061 3.72077 14.6673 3.65998 14.3645C3.56271 13.9607 3.84236 13.5443 4.17064 13.5947C4.31654 13.62 4.42597 13.6957 4.46244 13.8597C4.4746 13.8976 4.48676 13.9481 4.42597 13.9733C4.38949 13.9859 4.34086 13.9859 4.3287 13.9481C4.26791 13.7714 4.14632 13.7209 4.00042 13.7966C3.81804 13.8471 3.80588 14.049 3.79372 14.1878Z" fill="#A9A9A9"/>
  <path d="M9.20431 14.3899C9.21647 14.1628 9.24079 13.9357 9.25295 13.7085C9.25295 13.6328 9.26511 13.5823 9.35022 13.5571C9.44748 13.5193 9.4718 13.595 9.49612 13.6454C9.64202 13.8852 9.78792 14.1376 9.92167 14.3899C9.94598 14.4278 10.0311 14.4783 9.94598 14.5414C9.87303 14.5918 9.8244 14.5414 9.78792 14.4657C9.73929 14.3268 9.64202 14.3395 9.53259 14.3773C9.43533 14.4026 9.3259 14.4026 9.3259 14.554C9.3259 14.6297 9.31374 14.7306 9.21647 14.7054C9.1192 14.6802 9.19216 14.5918 9.19216 14.5287C9.19216 14.4783 9.19216 14.4278 9.20431 14.3899ZM9.41101 13.8726C9.39885 13.9861 9.3259 14.1123 9.42317 14.2007C9.44748 14.2259 9.55691 14.188 9.55691 14.1628C9.59339 14.0366 9.4718 13.9735 9.41101 13.8726Z" fill="#A9A9A9"/>
  <path d="M5.59323 14.2638C5.59323 14.3396 5.59323 14.4531 5.59323 14.5541C5.59323 14.6803 5.65402 14.756 5.77561 14.756C5.89719 14.756 5.94583 14.6929 5.94583 14.5793C5.95798 14.3774 5.97014 14.1881 5.9823 13.9862C5.9823 13.9231 5.95798 13.8348 6.06741 13.8348C6.16468 13.8348 6.15252 13.9231 6.15252 13.9862C6.14036 14.2008 6.1282 14.4279 6.10389 14.6424C6.07957 14.8317 5.97014 14.9453 5.77561 14.9326C5.58107 14.92 5.44733 14.8317 5.44733 14.6172C5.44733 14.3774 5.45948 14.1377 5.45948 13.8979C5.45948 13.8222 5.49596 13.8096 5.55675 13.8096C5.61755 13.8096 5.6297 13.86 5.6297 13.8979C5.61755 14.0115 5.60539 14.125 5.59323 14.2638Z" fill="#A9A9A9"/>
  <path d="M6.2984 14.3774C6.2984 14.3017 6.2984 14.2259 6.2984 14.1502C6.2984 13.8348 6.2984 13.8348 6.66316 13.86C6.86985 13.8726 6.97928 14.0114 6.95496 14.2386C6.9428 14.4152 6.83337 14.5288 6.67531 14.5288C6.5051 14.5288 6.4443 14.5793 6.46862 14.7685C6.48078 14.8443 6.51725 14.9578 6.38351 14.9578C6.27408 14.9578 6.31056 14.8443 6.31056 14.7812C6.31056 14.6297 6.31056 14.5036 6.2984 14.3774C6.31056 14.3774 6.31056 14.3774 6.2984 14.3774ZM6.46862 14.1881C6.45646 14.2764 6.46862 14.3521 6.59021 14.3395C6.68747 14.3269 6.78474 14.3143 6.77258 14.1755C6.77258 14.0619 6.69963 14.0367 6.60236 14.024C6.46862 14.0114 6.45646 14.0871 6.46862 14.1881Z" fill="#A9A9A9"/>
  <path d="M8.23157 14.1753C8.23157 13.9861 8.2802 13.822 8.46258 13.7211C8.58416 13.658 8.70575 13.6706 8.81517 13.7589C8.86381 13.7968 8.96108 13.8473 8.91244 13.9356C8.85165 14.0239 8.80302 13.9608 8.74222 13.9104C8.59632 13.7968 8.43826 13.8725 8.41394 14.0492C8.38963 14.2006 8.41395 14.352 8.46258 14.4908C8.49905 14.5791 8.55985 14.6422 8.65711 14.6422C8.74222 14.6422 8.81518 14.5918 8.83949 14.5034C8.86381 14.4277 8.88813 14.3646 8.97324 14.4025C9.0705 14.4403 9.00971 14.5161 8.98539 14.5791C8.90028 14.8189 8.62064 14.882 8.43826 14.7053C8.30452 14.5918 8.23157 14.3899 8.23157 14.1753Z" fill="#A9A9A9"/>
</svg>
