<svg width="100" height="24" viewBox="0 0 100 24" fill="none" xmlns="http://www.w3.org/2000/svg">
  <path d="M27.8397 10.5702C25.6704 10.0823 23.5634 10.5414 21.4608 11.0409C21.3446 11.0686 21.2348 11.1185 21.2185 11.2455C21.1251 11.9712 21.041 12.6979 20.95 13.4564C21.5963 13.224 22.1665 12.9842 22.7554 12.8153C23.8718 12.4124 25.0723 12.314 26.2376 12.5301C26.5078 12.573 26.7574 12.7034 26.9494 12.9019C27.1413 13.1005 27.2656 13.3567 27.3037 13.6328C27.3551 13.9166 27.3191 14.2096 27.2008 14.4718C27.0824 14.734 26.8875 14.9524 26.6425 15.0973C26.2233 15.3479 25.7668 15.5274 25.2911 15.629C23.9749 15.9126 22.6967 16.3553 21.4836 16.9479C20.1549 17.7003 19.3385 18.8281 19.4235 20.4156C19.5363 22.5212 20.5495 23.89 22.8256 23.888C23.4447 23.888 24.0618 23.8925 24.6824 23.8935C25.838 23.8935 25.837 23.8935 25.9616 22.7455C25.9725 22.6314 25.9917 22.5184 26.019 22.4073C26.0961 22.1095 26.0012 22.0127 25.6907 22.0157C24.9987 22.0697 24.3029 22.0384 23.6183 21.9225C23.346 21.8676 23.0926 21.741 22.8833 21.5553C22.674 21.3696 22.5161 21.1312 22.4253 20.864C22.3344 20.5967 22.3139 20.3099 22.3656 20.032C22.4174 19.7542 22.5397 19.4949 22.7203 19.2802C23.1319 18.8085 23.6619 18.4601 24.2532 18.2723C25.2689 17.8651 26.3795 17.7013 27.362 16.902C27.2483 19.1986 27.1509 21.3525 27.0253 23.5039C27.0055 23.8401 27.0856 23.9116 27.3981 23.9016C28.1102 23.8779 28.8237 23.8799 29.5358 23.9016C29.8251 23.9096 29.9215 23.83 29.9314 23.5246C29.9546 22.6467 30.0105 21.7698 30.0614 20.8929C30.1964 18.5686 30.4214 16.2493 30.4456 13.9195C30.4634 11.9742 29.692 10.9849 27.8397 10.5702Z" fill="#A9A9A9"/>
  <path d="M61.6057 10.7389C61.1325 10.5751 60.6291 10.5016 60.139 10.3862L59.9942 10.365L58.307 10.368L58.1438 10.3947C57.0095 10.5173 55.8856 10.725 54.7813 11.0161C54.5934 11.0665 54.4243 11.0781 54.3966 11.3387C54.3214 12.0346 54.224 12.7281 54.1251 13.4996C54.8382 13.162 55.5811 12.8938 56.3439 12.6988C57.3501 12.3834 58.4172 12.3252 59.4507 12.5295C59.7115 12.5751 59.9518 12.7027 60.138 12.8944C60.3242 13.086 60.447 13.3322 60.4891 13.5984C60.545 13.8812 60.5141 14.1746 60.4006 14.4388C60.287 14.703 60.0965 14.9251 59.8547 15.0751C59.4404 15.334 58.9857 15.5188 58.5102 15.6213C57.3075 15.8934 56.1322 16.2786 54.9993 16.7719C53.4551 17.5369 52.4898 18.7288 52.6258 20.5516C52.7593 22.3659 53.555 23.6218 55.4286 23.8501C56.1207 23.9033 56.8153 23.9159 57.5089 23.8879C57.9954 23.8879 58.5864 24.0461 58.9429 23.8214C59.3325 23.5744 59.0764 22.8986 59.2035 22.4309C59.2974 22.0857 59.197 22.0091 58.8697 22.0101C58.2147 22.0556 57.5569 22.0306 56.9071 21.9355C56.6085 21.8993 56.327 21.7739 56.0982 21.575C55.8694 21.376 55.7035 21.1126 55.6214 20.8177C55.5282 20.5156 55.521 20.1928 55.6009 19.8867C55.6807 19.5807 55.8442 19.3041 56.0724 19.0891C56.4275 18.7482 56.8486 18.4866 57.3086 18.3211C58.3673 17.8801 59.5338 17.7163 60.5505 16.91C60.4407 19.1728 60.3482 21.3086 60.2236 23.4424C60.2038 23.7831 60.228 23.9146 60.6039 23.896C61.2961 23.8647 61.9929 23.8637 62.6856 23.896C63.0436 23.9131 63.105 23.7901 63.1213 23.4514C63.1994 21.869 63.324 20.2886 63.4106 18.7066C63.5035 17.0093 63.6113 15.3114 63.64 13.612C63.6893 12.9653 63.5119 12.3216 63.1394 11.7956C62.7669 11.2695 62.2235 10.8951 61.6057 10.7389Z" fill="#A9A9A9"/>
  <path d="M43.2431 8.24885L43.3672 8.21812L44.053 8.14353L44.2766 8.07699L44.6964 8.01701L44.8418 7.95552C46.2193 7.56892 47.572 7.09565 48.8921 6.5384L49.0073 6.46279L52.3817 4.91512C54.4324 3.78021 56.6953 3.09976 59.0221 2.9184C60.3901 2.85406 61.7523 3.13776 62.9859 3.74389C63.0972 3.79781 63.2495 4.07853 63.4186 3.78975L62.1859 2.50766L62.0815 2.40991C62.0073 2.35498 61.9307 2.30358 61.86 2.24411C60.9036 1.38258 59.7743 0.743868 58.551 0.372485C57.3276 0.00110053 56.0396 -0.0940436 54.7765 0.0936795C53.0098 0.405897 51.2906 0.951069 49.662 1.71545C47.4274 2.67298 45.2932 3.87091 42.9805 4.64198C40.6268 5.42716 38.2685 5.6499 35.9005 4.68833C35.6359 4.58099 35.4084 4.34917 35.044 4.38243C37.2143 6.9839 39.8425 8.46606 43.2431 8.24885Z" fill="#A9A9A9"/>
  <path d="M41.0519 10.6791C39.9378 10.5219 38.8178 10.4397 37.6963 10.3813C36.3498 10.2563 34.9927 10.4327 33.7201 10.8983C31.5073 11.7979 30.9787 14.2366 32.6135 15.9975C33.1121 16.4886 33.6507 16.9357 34.2235 17.334C35.0852 17.9048 35.9128 18.5275 36.7019 19.1986C36.8701 19.3329 36.9986 19.5121 37.0729 19.7162C37.1473 19.9204 37.1647 20.1415 37.1232 20.3552C37.0818 20.5688 36.983 20.7665 36.8379 20.9264C36.6928 21.0863 36.5071 21.2021 36.3013 21.2609C35.6348 21.5201 34.9163 21.6095 34.2082 21.5214C32.9331 21.3741 31.6783 21.0813 30.4674 20.6486C30.4674 21.4549 30.4956 22.2134 30.456 22.9668C30.4348 23.3765 30.6098 23.4814 30.9505 23.5353C32.2088 23.7369 33.4732 23.8801 34.7437 23.9651C36.1097 24.0846 37.4848 23.8953 38.7708 23.4108C40.3576 22.7894 41.1938 21.5829 41.0247 20.0705C40.9457 19.5507 40.7594 19.0538 40.4781 18.6128C40.1969 18.1717 39.8269 17.7965 39.3929 17.5119C38.3441 16.7151 37.2562 15.9718 36.2029 15.1805C35.9814 15.0482 35.8071 14.8471 35.7057 14.6066C35.6043 14.3662 35.581 14.0989 35.6392 13.844C35.7156 13.6059 35.8599 13.3964 36.0537 13.2423C36.2474 13.0881 36.4819 12.9964 36.7271 12.9787C38.1876 12.7055 39.6919 12.8095 41.1028 13.2811C41.4301 13.3819 41.5325 13.3451 41.5187 12.9787C41.4959 12.3876 41.4905 11.7934 41.5226 11.2032C41.5389 10.8353 41.398 10.727 41.0519 10.6791Z" fill="#A9A9A9"/>
  <path d="M47.7506 12.9887C48.3739 12.8536 49.0124 12.8052 49.6485 12.8451C50.6545 12.9014 51.6494 13.0877 52.6094 13.3995C52.6094 12.6128 52.5921 11.8876 52.6174 11.1619C52.6287 10.8358 52.5021 10.7345 52.2119 10.6952C50.7469 10.4813 49.2691 10.3711 47.7892 10.3651C46.7579 10.3462 45.7326 10.5284 44.7684 10.9018C42.5926 11.8014 42.0512 14.2159 43.6479 15.9637C43.8642 16.2018 44.1012 16.4195 44.356 16.6142C45.4508 17.4448 46.5896 18.2194 47.6463 19.0968C48.5893 19.8795 48.3242 20.9771 47.1577 21.35C46.565 21.5301 45.9437 21.5915 45.3281 21.531C44.0428 21.3888 42.7779 21.0956 41.5587 20.6571C41.5587 21.4538 41.5859 22.1801 41.5483 22.9027C41.5255 23.3382 41.663 23.4929 42.0873 23.5579C43.2923 23.7378 44.5004 23.8814 45.7138 23.9641C47.4564 24.0825 49.1644 23.9323 50.6923 22.9607C51.0476 22.7544 51.3553 22.4729 51.5947 22.135C51.8341 21.7971 51.9995 21.4109 52.0798 21.0023C52.1601 20.5936 52.1534 20.1722 52.0602 19.7665C51.9669 19.3607 51.7893 18.9801 51.5394 18.6503C51.0973 18.0553 50.561 17.5396 49.9526 17.1243C49.0501 16.4459 48.0691 15.8775 47.2141 15.1326C47.0144 15.0028 46.8575 14.815 46.7637 14.5933C46.6699 14.3717 46.6435 14.1264 46.688 13.8893C46.7608 13.6506 46.8999 13.4385 47.0885 13.2787C47.2771 13.1189 47.5071 13.0182 47.7506 12.9887Z" fill="#A9A9A9"/>
  <path d="M79.7731 3.29932V3.30633H79.7766L79.7731 3.29932Z" fill="#A9A9A9"/>
  <path d="M80.5766 4.08418C80.4938 4.0946 80.4579 4.05747 80.4688 3.9728L80.4233 3.97785L80.4688 3.96927C80.2334 3.90677 79.996 3.84683 80.0079 3.52076L80.001 3.51267C79.6805 3.71426 79.7537 3.47893 79.7725 3.30557C79.7102 3.30371 79.6507 3.27827 79.6058 3.2342C79.5608 3.19014 79.5335 3.13061 79.5292 3.06718C78.6437 2.25429 77.6012 1.6391 76.4686 1.26113C75.336 0.883158 74.1383 0.750771 72.9526 0.87242C71.2422 1.08949 69.5731 1.56507 68.0003 2.28352C65.7113 3.22896 63.5415 4.45308 61.2105 5.30226C58.6911 6.22049 56.1613 6.57629 53.5984 5.47261C53.5086 5.4157 53.4042 5.38733 53.2985 5.3911C53.1929 5.39487 53.0907 5.43061 53.005 5.49377C53.2181 5.71804 53.4159 5.93223 53.6201 6.13936C55.9368 8.49489 58.6817 9.53811 61.9522 8.94091C63.8374 8.52511 65.6663 7.87888 67.3995 7.01625C69.3819 6.1202 71.3059 5.08507 73.3828 4.41177C75.6455 3.678 77.9103 3.48497 80.1825 4.36893C80.2724 4.38493 80.365 4.36403 80.4399 4.31079C80.5149 4.25755 80.5661 4.17626 80.5825 4.08468L80.5766 4.08418Z" fill="#A9A9A9"/>
</svg>
