<svg width="100" height="24" viewBox="0 0 100 24" fill="none" xmlns="http://www.w3.org/2000/svg">
  <path d="M90.2726 5.68117C88.986 7.11578 87.8083 8.4159 86.6307 9.71601C85.5839 10.904 84.5153 12.0697 83.4685 13.2801C83.0978 13.706 82.727 13.9078 82.16 13.9078C78.7362 13.8854 75.3341 13.8854 71.9102 13.9078C71.3432 13.9078 70.9943 13.7733 70.7326 13.1905C70.122 11.8007 69.4677 10.4333 68.7481 9.08837C68.421 8.48314 68.53 8.12449 68.988 7.65376C70.0348 6.62263 71.0161 5.52426 72.0411 4.4483C72.2592 4.20173 72.5645 3.97757 72.4336 3.5965C72.281 3.1706 71.9103 3.14818 71.5177 3.14818C71.4741 3.14818 71.4523 3.14818 71.4087 3.14818C68.3773 3.05852 68.3773 3.05852 67.3087 5.95016C66.4364 8.30382 65.5423 10.6799 64.7136 13.056C64.4955 13.6836 64.212 13.9078 63.5578 13.9078C61.3115 13.8629 59.0435 13.8854 56.7973 13.9078C56.1648 13.9078 55.9468 13.7957 56.2303 13.1008C57.8004 9.02112 59.3488 4.94145 60.8536 0.839357C61.028 0.368626 61.2679 0.234131 61.7259 0.234131C67.1997 0.256547 72.6953 0.211715 78.1692 0.278962C80.5244 0.301378 81.6366 2.29638 80.6335 4.49313C79.9792 5.88291 78.9106 6.89162 77.624 7.63134C77.1442 7.92275 77.057 8.16932 77.2968 8.66247C77.6676 9.37978 78.0383 10.1195 78.3218 10.8592C78.5835 11.5541 78.8016 11.6214 79.325 11.061C80.7425 9.51427 82.2255 8.03483 83.6866 6.53297C84.886 5.3001 86.1073 4.06723 87.2849 2.78953C88.8769 1.06352 90.8178 0.234131 93.1077 0.278962C93.5875 0.278962 94.0454 0.278962 94.5252 0.278962C96.7278 0.278962 96.7278 0.278962 97.2512 2.40846C98.1017 5.90533 98.9522 9.40219 99.8464 12.8991C100.043 13.706 99.8682 13.9302 99.0613 13.9302C97.0986 13.8854 95.1358 13.8854 93.1731 13.9302C92.4316 13.9526 92.1917 13.6164 92.0391 12.9663C91.5375 10.5678 90.9269 8.23657 90.2726 5.68117Z" fill="#A9A9A9"/>
  <path d="M22.1442 9.6711C22.3841 10.635 22.624 11.5989 22.9293 12.8541C23.8889 10.5453 24.7394 8.48306 25.6335 6.42081C26.4404 4.53788 27.2909 2.67737 26.9202 0.525451C26.7894 -0.236686 27.4 0.0547195 27.7053 0.0547195C31.0201 0.0323037 34.3131 0.00988787 37.628 0.0547195C39.6561 0.0771353 41.6843 -0.147023 43.7124 0.21163C47.8778 0.973767 49.3389 4.78445 46.831 8.32615C44.1704 12.0696 40.4848 13.7732 36.0578 13.8404C32.176 13.8853 28.2941 13.6835 24.4123 13.7732C21.8825 13.818 19.331 13.7732 16.8013 13.9077C15.6673 13.9749 15.122 13.6387 15.0348 12.4731C15.013 12.2265 14.9258 11.9575 14.8604 11.7109C17.2156 10.7022 19.6581 10.1194 22.1442 9.6711ZM40.7247 5.14311C40.7247 3.68608 39.9614 3.26018 39.0455 2.99119C37.846 2.65495 36.603 2.76703 35.3599 2.74462C34.9456 2.74462 34.7929 2.92394 34.6839 3.28259C33.877 5.63625 33.0701 7.9675 32.2632 10.3212C32.1105 10.7695 32.1323 11.0385 32.6993 10.9936C34.6839 10.7919 36.5812 10.3212 38.1296 8.99862C39.4162 7.87783 40.4194 6.57772 40.7247 5.14311Z" fill="#A9A9A9"/>
  <path d="M6.4424 13.4148C6.1589 13.5717 6.00624 13.8855 5.61369 13.8855C3.7382 13.8631 1.86271 13.8855 0.00902062 13.8855C-0.0564036 13.4148 0.248909 13.3027 0.445182 13.101C3.84724 9.58169 7.22749 6.06241 10.6295 2.56554C12.0471 1.0861 13.7699 0.323965 15.7763 0.279133C16.6922 0.256718 17.6081 0.368797 18.5023 0.256718C19.6145 0.0998071 19.9852 0.61537 20.2033 1.6465C20.7267 4.04499 21.3373 6.39864 21.9261 8.77472C19.3092 8.8868 16.6922 8.86438 14.097 8.77472C13.8571 7.81084 13.6173 6.82454 13.3119 5.68134C12.3742 6.7573 11.5673 7.67635 10.7822 8.57298C9.21202 10.0748 7.7945 11.7112 6.4424 13.4148Z" fill="#A9A9A9"/>
  <path d="M59.3924 0.234131C58.2584 3.37234 57.168 6.39847 56.0558 9.42461C55.5978 10.6799 55.0962 11.9128 54.7037 13.1905C54.5292 13.7509 54.2239 13.9078 53.6787 13.9078C51.4324 13.8853 49.1862 13.8853 46.94 13.9078C46.373 13.9078 46.2203 13.7509 46.4384 13.2129C48.0304 9.06595 49.6442 4.94145 51.2144 0.794526C51.367 0.391041 51.5851 0.234131 52.0213 0.234131C54.3983 0.256547 56.7754 0.234131 59.3924 0.234131Z" fill="#A9A9A9"/>
  <path d="M14.0752 8.75232C16.6921 8.84199 19.3091 8.8644 21.9043 8.75232C22.4495 8.79716 22.9729 8.84199 23.6053 8.88682C23.1473 9.46963 22.4931 9.24547 22.1223 9.67137C19.6362 10.1421 17.1719 10.7025 14.8384 11.7336C13.181 11.7336 11.6763 12.4733 10.1061 12.8096C9.12473 13.0337 8.14337 13.3476 7.18381 13.639C6.8785 13.7286 6.6168 13.7735 6.42053 13.4372C7.77263 11.7336 9.19016 10.0973 10.7385 8.573C11.8507 9.04373 12.963 8.75232 14.0752 8.75232Z" fill="#A9A9A9"/>
  <path d="M52.8282 20.453C52.8282 19.7357 52.85 18.996 52.8282 18.2787C52.8064 17.7407 53.0899 17.6959 53.5042 17.6959C53.9186 17.6959 54.1803 17.7407 54.1803 18.2787C54.1585 19.5788 54.1803 20.8789 54.1585 22.2015C54.1585 22.5377 54.3548 23.0757 53.8314 23.0981C53.3516 23.1205 52.7628 23.3895 52.4138 22.6722C52.0213 21.8652 51.5197 21.1031 50.8655 20.3858C50.8655 21.0583 50.8437 21.7531 50.8655 22.4256C50.8873 22.9188 50.7782 23.1653 50.2112 23.1653C49.6878 23.1429 49.5134 22.986 49.5352 22.448C49.557 21.1928 49.5352 19.9151 49.557 18.6374C49.557 18.3011 49.3389 17.7856 49.8841 17.7407C50.3857 17.6959 50.9527 17.4717 51.3016 18.189C51.6942 18.996 52.174 19.7581 52.6101 20.5427C52.6537 20.5203 52.741 20.4979 52.8282 20.453Z" fill="#A9A9A9"/>
  <path d="M73.8512 19.8929C73.8512 20.9913 73.8294 21.7758 73.8512 22.5379C73.873 23.0311 73.6986 23.1656 73.2406 23.1656C72.7608 23.1656 72.4991 23.0983 72.5209 22.4931C72.5646 21.2154 72.5209 19.9601 72.5428 18.6824C72.5428 18.3462 72.2592 17.7634 72.9353 17.741C73.4369 17.7186 74.0039 17.5168 74.331 18.2341C74.7018 19.0635 75.2033 19.8256 75.8358 20.6102C75.8358 19.8705 75.8794 19.1083 75.8358 18.3686C75.7922 17.7634 76.0975 17.7186 76.5554 17.7186C77.0352 17.7186 77.1661 17.8755 77.1661 18.3686C77.1225 19.6687 77.1661 20.9913 77.1443 22.2914C77.1443 22.6052 77.406 23.1432 76.7953 23.1432C76.3374 23.1432 75.7922 23.3897 75.465 22.7397C75.0071 21.8431 74.4837 21.0137 73.8512 19.8929Z" fill="#A9A9A9"/>
  <path d="M95.8336 20.3858C95.8336 17.7184 95.8336 17.7184 98.3634 17.7184C98.4288 17.7184 98.516 17.6959 98.5815 17.7184C99.0176 17.9201 99.8899 17.2252 99.8681 18.3012C99.8463 19.2875 99.0394 18.6598 98.6251 18.8391C98.1671 19.0409 97.2512 18.3684 97.2294 19.2651C97.2076 20.2065 98.1017 19.5789 98.5815 19.7358C98.7559 19.7806 98.9522 19.7582 99.1267 19.7582C99.5846 19.7134 99.6719 19.9824 99.6719 20.3634C99.6937 20.7669 99.4974 20.879 99.1485 20.879C98.6687 20.8566 98.2107 20.9014 97.7309 20.879C97.3166 20.8566 97.1857 21.0359 97.1639 21.4618C97.1639 21.9325 97.3602 22.0446 97.7528 22.0222C98.298 21.9998 98.8432 22.0446 99.3884 21.9998C99.8899 21.9549 99.9772 22.2015 99.999 22.6498C100.021 23.1878 99.6937 23.143 99.3666 23.143C98.3852 23.143 97.4038 23.1206 96.4225 23.143C95.9209 23.1654 95.8118 22.9412 95.8336 22.4929C95.8555 21.798 95.8336 21.0807 95.8336 20.3858Z" fill="#A9A9A9"/>
  <path d="M88.964 19.4669C88.397 19.5342 87.9173 19.6462 87.4157 19.041C86.9141 18.4582 86.1726 18.5927 85.7583 19.2652C85.3003 20.0049 85.3003 20.8343 85.7365 21.5964C86.129 22.3137 87.0013 22.381 87.5465 21.6637C87.9609 21.1033 88.5279 21.0809 88.8332 21.3723C89.1385 21.6861 88.746 22.1792 88.4625 22.5155C87.8082 23.3 86.696 23.5018 85.671 23.0983C84.2535 22.5155 83.6429 20.6325 84.3407 19.0186C84.9077 17.6961 86.696 17.0684 87.9609 17.7857C88.5497 18.1668 88.9204 18.7048 88.964 19.4669Z" fill="#A9A9A9"/>
  <path d="M65.9567 23.0981C65.1934 23.1205 64.4955 23.4119 64.212 22.4032C64.103 22.0445 62.5764 22.0893 62.3365 22.4256C61.7477 23.1653 61.7477 23.1653 60.8318 23.1205C60.8972 22.2463 61.3334 21.4841 61.5951 20.6771C61.835 19.8926 62.1839 19.1529 62.3802 18.3683C62.5328 17.7183 62.9254 17.7183 63.4269 17.7183C63.9067 17.7183 64.1902 17.8079 64.3647 18.3683C64.8227 19.915 65.3897 21.4393 65.9567 23.0981ZM63.1871 19.2201C63.2307 19.9823 62.5546 20.453 63.0126 21.0358C63.0998 21.1479 63.645 21.0806 63.6886 20.991C63.9067 20.3857 63.5796 19.8926 63.1871 19.2201Z" fill="#A9A9A9"/>
  <path d="M32.3286 17.7181C32.7648 17.7181 33.2009 17.7405 33.6371 17.7181C34.0296 17.6957 34.2259 17.7854 34.2259 18.2561C34.2259 18.6596 34.1387 18.8837 33.6807 18.8613C33.2009 18.8389 32.7429 18.8613 32.2632 18.8613C31.8924 18.8389 31.7398 18.9734 31.7398 19.3769C31.7398 19.758 31.7834 20.0494 32.2632 20.0045C32.6339 19.9821 32.9828 20.027 33.3536 20.0045C33.7461 19.9821 33.9424 20.0718 33.9424 20.5425C33.9424 20.946 33.877 21.1926 33.419 21.1253C33.2445 21.1029 33.0483 21.1477 32.8738 21.1253C31.9797 20.9684 31.6307 21.3271 31.7616 22.2685C31.827 22.7168 31.9361 23.21 31.1292 23.21C30.3659 23.21 30.4313 22.8065 30.4531 22.3134C30.4749 21.1477 30.5185 20.0045 30.4313 18.8389C30.3877 17.9871 30.584 17.5836 31.4781 17.7405C31.7398 17.763 32.0233 17.7181 32.3286 17.7181Z" fill="#A9A9A9"/>
  <path d="M42.4038 20.4308C42.4038 21.1033 42.382 21.7758 42.4038 22.4483C42.4256 22.9862 42.273 23.1656 41.7278 23.1656C41.248 23.1656 40.9863 23.0983 41.0081 22.4931C41.0517 21.1033 41.0517 19.7359 41.0081 18.3462C40.9863 17.7409 41.2698 17.7185 41.7278 17.6961C42.273 17.6737 42.4256 17.8978 42.382 18.4134C42.382 19.0859 42.4038 19.7584 42.4038 20.4308Z" fill="#A9A9A9"/>
</svg>
